<svg xmlns="http://www.w3.org/2000/svg" xmlns:xlink="http://www.w3.org/1999/xlink" width="50" height="44.415" viewBox="0 0 50 44.415"><defs><clipPath id="a"><rect width="50" height="43.181" fill="#231f20"/></clipPath></defs><g transform="translate(17351 11919.234)"><path d="M-497.153,301.4h7l16.177-16.169v-7.618Z" transform="translate(-16852.137 -12195.618)" fill="#fff" stroke="rgba(0,0,0,0)" stroke-miterlimit="10" stroke-width="1"/><path d="M-326.767,277.617v7.618L-310.59,301.4h7l-6.236-6.4V279.328h-5.351v10.183Z" transform="translate(-16999.35 -12195.617)" fill="#00b0e9" stroke="rgba(0,0,0,0)" stroke-miterlimit="10" stroke-width="1"/><path d="M-497.153,469.681h1.7v6.549h3.286v-6.549h1.679v15.793h-1.679v-7.707h-3.286v7.707h-1.7Z" transform="translate(-16852.137 -12361.56)" fill="#fff"/><g transform="translate(-17351 -11918)"><g clip-path="url(#a)"><path d="M-428.548,500.711v6c0,2.082-.872,3.131-2.633,3.131-1.85,0-2.527-1.174-2.527-3.113v-6.013c0-2.01.925-3.078,2.6-3.078,1.761,0,2.562,1.21,2.562,3.078m-3.861-.053v6.156c0,1.352.481,1.868,1.281,1.868.836,0,1.281-.516,1.281-1.921v-6.1c0-1.263-.427-1.868-1.3-1.868-.854,0-1.263.57-1.263,1.868" transform="translate(444.046 -467.71)" fill="#fff"/><path d="M-384.045,498.809v9.234c0,.978.338,1.654,1.245,1.654s1.21-.641,1.21-1.637v-9.252h1.281v9.2c0,1.832-.836,2.846-2.526,2.846-1.637,0-2.473-.925-2.473-2.811v-9.234Z" transform="translate(402.229 -468.726)" fill="#fff"/><path d="M-338.921,506.333v.694c0,1.121.391,1.708,1.228,1.708.854,0,1.174-.605,1.174-1.921a3.025,3.025,0,0,0-1.548-2.9c-1.281-1-1.921-1.6-1.921-3.345,0-1.512.463-2.953,2.313-2.935,1.779,0,2.242,1.174,2.242,2.686v.551H-336.7v-.516c0-.979-.178-1.619-1-1.619s-1.032.712-1.032,1.637c0,1.1.231,1.53,1.317,2.348,1.655,1.246,2.17,1.957,2.17,3.914,0,1.672-.48,3.2-2.491,3.2-1.9,0-2.455-1.263-2.455-2.829v-.676Z" transform="translate(363.242 -467.71)" fill="#fff"/><path d="M-290.6,504.947h-2.669v4.59h3.025l-.16,1.157h-4.128V498.809h4.074v1.174h-2.811v3.789h2.669Z" transform="translate(323.799 -468.726)" fill="#fff"/><path d="M-249.835,469.681v12.271c0,1.3.449,2.2,1.655,2.2s1.608-.851,1.608-2.175v-12.3h1.7V481.9c0,2.435-1.111,3.783-3.357,3.783-2.175,0-3.286-1.229-3.286-3.735V469.681Z" transform="translate(286.631 -443.559)" fill="#fff"/><path d="M-190.8,500.336h2.14c1.723,0,2.541.87,2.541,2.749v.714c0,1.74-.523,3.028-2.628,3.028h-.8v5.134H-190.8Zm1.253,5.447h.678c1.323,0,1.514-.8,1.514-2v-.626c0-.94-.209-1.775-1.41-1.775h-.783Z" transform="translate(234.173 -470.045)" fill="#fff"/><path d="M-164.285,579.45a.578.578,0,0,1-.172.415.578.578,0,0,1-.417.167.583.583,0,0,1-.418-.167.583.583,0,0,1-.175-.415.582.582,0,0,1,.177-.411.582.582,0,0,1,.416-.164.576.576,0,0,1,.415.164.576.576,0,0,1,.174.411m-1.034,0a.446.446,0,0,0,.127.325.446.446,0,0,0,.322.134.44.44,0,0,0,.316-.135.44.44,0,0,0,.122-.321.445.445,0,0,0-.123-.325.445.445,0,0,0-.319-.138.447.447,0,0,0-.32.135.447.447,0,0,0-.126.324m.354.3h-.133v-.575a1.166,1.166,0,0,1,.221-.018.36.36,0,0,1,.2.042.161.161,0,0,1,.056.126.147.147,0,0,1-.119.133v.007a.169.169,0,0,1,.1.14.438.438,0,0,0,.042.144h-.144a.5.5,0,0,1-.046-.14c-.01-.063-.045-.091-.119-.091h-.063Zm0-.326h.063c.074,0,.133-.025.133-.084s-.038-.088-.123-.088a.3.3,0,0,0-.074.007Z" transform="translate(212.286 -537.903)" fill="#fff"/></g></g></g></svg>