<svg xmlns="http://www.w3.org/2000/svg" width="54.756" height="39.864" viewBox="0 0 54.756 39.864">
  <g id="ic_annul" transform="translate(0.1 0.1)">
    <g id="Group_161" transform="translate(36.715 20.28)">
      <path id="Path_55" d="M16.3,44.257H6.5V24.9h4.9c1.283,0,4.9,3.615,4.9,4.9Zm-8.59-1.2H15.09V29.8c-.117-.739-2.954-3.576-3.693-3.654H7.7Z" transform="translate(-6.5 -24.9)" fill="#00b0e9" stroke="#00b0e9" stroke-width="0.2"/>
    </g>
    <g id="Group_162" transform="translate(26.008 21.177)">
      <path id="Path_56" d="M8.488,28.615h-1.2V26.2H6V25H8.527Z" transform="translate(-6 -25)" fill="#00b0e9" stroke="#00b0e9" stroke-width="0.2"/>
    </g>
    <g id="Group_163" transform="translate(30.182 21.177)">
      <path id="Path_57" d="M10.4,28.615h-1.2V26.2H7.4v2.41H6.2V25h4.2Z" transform="translate(-6.2 -25)" fill="#00b0e9" stroke="#00b0e9" stroke-width="0.2"/>
    </g>
    <g id="Group_164" transform="translate(26.863 13.69)">
      <path id="Path_58" d="M10.237,28.315h-1.2V25.9H7.2v2.41H6V24.7h4.237Z" transform="translate(-6 -24.7)" fill="#00b0e9" stroke="#00b0e9" stroke-width="0.2"/>
    </g>
    <g id="Group_165" transform="translate(24.283 26.342)">
      <path id="Path_59" d="M10.137,28.815h-1.2V26.4H7.1v2.41H5.9V25.2h4.237Z" transform="translate(-5.9 -25.2)" fill="#00b0e9" stroke="#00b0e9" stroke-width="0.2"/>
    </g>
    <g id="Group_166" transform="translate(30.182 26.342)">
      <path id="Path_60" d="M10.4,28.815h-1.2V26.4H7.4v2.41H6.2V25.2h4.2Z" transform="translate(-6.2 -25.2)" fill="#00b0e9" stroke="#00b0e9" stroke-width="0.2"/>
    </g>
    <g id="Group_167" transform="translate(24.283 31.546)">
      <path id="Path_61" d="M10.137,29.115h-1.2V26.7H7.1v2.41H5.9V25.5h4.237Z" transform="translate(-5.9 -25.5)" fill="#00b0e9" stroke="#00b0e9" stroke-width="0.2"/>
    </g>
    <g id="Group_168" transform="translate(30.182 31.546)">
      <path id="Path_62" d="M10.4,29.115h-1.2V26.7H7.4v2.41H6.2V25.5h4.2Z" transform="translate(-6.2 -25.5)" fill="#00b0e9" stroke="#00b0e9" stroke-width="0.2"/>
    </g>
    <g id="Group_169" transform="translate(39.495 26.342)">
      <path id="Path_63" d="M10.837,28.815h-1.2V26.4H7.8v2.41H6.6V25.2h4.237Z" transform="translate(-6.6 -25.2)" fill="#00b0e9" stroke="#00b0e9" stroke-width="0.2"/>
    </g>
    <g id="Group_170" transform="translate(39.495 31.546)">
      <path id="Path_64" d="M10.837,29.115h-1.2V26.7H7.8v2.41H6.6V25.5h4.237Z" transform="translate(-6.6 -25.5)" fill="#00b0e9" stroke="#00b0e9" stroke-width="0.2"/>
    </g>
    <g id="Group_171" transform="translate(28.389 0)">
      <rect id="Rectangle_39" width="1.205" height="4.703" transform="translate(0 0)" fill="#00b0e9" stroke="#00b0e9" stroke-width="0.2"/>
    </g>
    <g id="Group_174" transform="translate(0 4.42)">
      <g id="Group_172" transform="translate(0 0)">
        <path id="Path_65" d="M17.549,59.416a.558.558,0,0,1-.583-.505c-.816-4.82-3.615-7.852-6.375-10.806C7.6,44.956,4.8,41.925,4.8,36.949a12.749,12.749,0,0,1,25.5,0c0,4.975-2.8,8.007-5.792,11.195-2.721,2.915-5.558,5.947-6.375,10.806A.586.586,0,0,1,17.549,59.416Zm0-34.011A11.546,11.546,0,0,0,6,36.949c0,4.509,2.643,7.346,5.481,10.378,2.371,2.565,4.82,5.17,6.064,8.979,1.244-3.809,3.693-6.452,6.064-8.979,2.8-3.032,5.481-5.869,5.481-10.378A11.546,11.546,0,0,0,17.549,25.4Z" transform="translate(-4.8 -24.2)" fill="#00b0e9" stroke="#00b0e9" stroke-width="0.2"/>
      </g>
      <g id="Group_173" transform="translate(7.884 7.375)">
        <path id="Path_66" d="M10.059,34.317a4.859,4.859,0,1,1,4.859-4.859A4.86,4.86,0,0,1,10.059,34.317Zm0-8.551a3.654,3.654,0,1,0,3.654,3.654h0a3.675,3.675,0,0,0-3.654-3.654Z" transform="translate(-5.2 -24.6)" fill="#00b0e9" stroke="#00b0e9" stroke-width="0.2"/>
      </g>
    </g>
    <g id="Group_179" transform="translate(0.051 38.428)">
      <g id="Group_175" transform="translate(2.995 0)">
        <rect id="Rectangle_40" width="45.594" height="1.205" fill="#00b0e9" stroke="#00b0e9" stroke-width="0.2"/>
      </g>
      <g id="Group_176" transform="translate(50.218 0)">
        <rect id="Rectangle_41" width="1.477" height="1.205" transform="translate(0)" fill="#00b0e9" stroke="#00b0e9" stroke-width="0.2"/>
      </g>
      <g id="Group_177" transform="translate(53.029 0)">
        <rect id="Rectangle_42" width="1.477" height="1.205" transform="translate(0)" fill="#00b0e9" stroke="#00b0e9" stroke-width="0.2"/>
      </g>
      <g id="Group_178" transform="translate(0 0)">
        <rect id="Rectangle_43" width="1.477" height="1.205" fill="#00b0e9" stroke="#00b0e9" stroke-width="0.2"/>
      </g>
    </g>
    <g id="Group_180" transform="translate(20.062 4.098)">
      <path id="Path_67" d="M23.541,59.766H5.7V46.472H6.9v12.05H22.336V38.893a1.128,1.128,0,0,0-1.127-1.127h-.972v-5.83a1.128,1.128,0,0,0-1.127-1.127H17.167V26.532A1.128,1.128,0,0,0,16.039,25.4H13.28a1.128,1.128,0,0,0-1.127,1.127v4.237H10.209a1.282,1.282,0,0,0-.933.466l-.972-.7a2.322,2.322,0,0,1,1.9-.972h.661V26.532A2.339,2.339,0,0,1,13.2,24.2h2.76a2.339,2.339,0,0,1,2.332,2.332v3.032h.739A2.339,2.339,0,0,1,21.365,31.9v4.664a2.325,2.325,0,0,1,2.1,2.332Z" transform="translate(-5.7 -24.2)" fill="#00b0e9" stroke="#00b0e9" stroke-width="0.2"/>
    </g>
  </g>
</svg>
