<svg xmlns="http://www.w3.org/2000/svg" width="49.452" height="73.262" viewBox="0 0 49.452 73.262">
  <path id="ic_business_account" d="M114.849,52.226a5.073,5.073,0,0,1-4.364-2.45,1.221,1.221,0,1,0-2.086,1.27,7.537,7.537,0,0,0,2.554,2.545l-1.265,5.743-3.051-3.513a1.223,1.223,0,1,0-1.78-1.675l-2.147,2.469L97.3,50.605a7.458,7.458,0,0,0,.819-2.865,16.349,16.349,0,0,0,20.936-15.669V21.979a1.221,1.221,0,1,0-2.442,0V32.071a13.889,13.889,0,0,1-27.779,0V21.709a6.9,6.9,0,0,0,6.411-5.425,41.769,41.769,0,0,0,16.764,6.2,1.221,1.221,0,0,0,.339-2.419A39.35,39.35,0,0,1,95.037,13.2a1.223,1.223,0,0,0-1.926,1c0,.03-.011,3.059-2.308,4.441a5.026,5.026,0,0,1-3.175.589,1.222,1.222,0,0,0-1.224,1.08c-.013.118-.009-.284-.009,9.771a2.521,2.521,0,0,1-1.374-2.234V12.974a2.9,2.9,0,0,1,2.9-2.9,1.221,1.221,0,0,0,1.134-.768A10.867,10.867,0,0,1,99.193,2.442h10.471a10.932,10.932,0,0,1,10.919,10.919V27.849a1.221,1.221,0,0,0,2.442,0V13.361A13.376,13.376,0,0,0,109.664,0H99.193a13.292,13.292,0,0,0-12.1,7.7,5.351,5.351,0,0,0-4.513,5.278V27.849a4.982,4.982,0,0,0,3.828,4.826,16.356,16.356,0,0,0,9.3,14.139v.322a5.093,5.093,0,0,1-5.1,5.089A12.6,12.6,0,0,0,78,64.828v7.213a1.221,1.221,0,0,0,2.442,0V64.828A10.155,10.155,0,0,1,90.6,54.668a7.621,7.621,0,0,0,1.6-.17l1.7,7.732a1.222,1.222,0,0,0,2.114.538L98.422,60,96.936,71.89a1.221,1.221,0,0,0,2.423.3l1.718-13.743c.078.086.756.847.843.924a1.221,1.221,0,0,0,1.72-.108c.241-.276-.383.441.732-.841l1.721,13.768a1.221,1.221,0,0,0,2.423-.3L107.03,60l2.406,2.77a1.222,1.222,0,0,0,2.114-.538l1.7-7.733a7.668,7.668,0,0,0,1.6.17A10.155,10.155,0,0,1,125.01,64.828v7.213a1.221,1.221,0,0,0,2.442,0V64.828a12.6,12.6,0,0,0-12.6-12.6ZM95.765,59.334,94.5,53.589a7.582,7.582,0,0,0,1.3-1l2.96,3.289Z" transform="translate(-78)" fill="#007aff"/>
</svg>
