<svg xmlns="http://www.w3.org/2000/svg" width="61.178" height="45.051" viewBox="0 0 61.178 45.051">
  <g id="ic_monthly" transform="translate(0.15 0.15)">
    <g id="Group_141" transform="translate(32.192 5.42)">
      <path id="Path_45" d="M21.115,63.511a.659.659,0,0,1-.658-.57c-.921-5.4-4.036-8.775-7.108-12.022-3.291-3.554-6.45-6.932-6.45-12.5a14.215,14.215,0,1,1,28.431,0c0,5.572-3.159,8.907-6.45,12.5-3.027,3.291-6.186,6.669-7.108,12.022A.63.63,0,0,1,21.115,63.511Zm0-37.951A12.845,12.845,0,0,0,8.26,38.415c0,5,2.983,8.2,6.1,11.583,2.632,2.852,5.4,5.791,6.757,10.047,1.4-4.256,4.124-7.2,6.8-10.047,3.159-3.378,6.1-6.537,6.1-11.583A12.883,12.883,0,0,0,21.115,25.56Z" transform="translate(-6.9 -24.2)" fill="#00b0e9" stroke="#00b0e9" stroke-width="0.3"/>
    </g>
    <g id="Group_142" transform="translate(40.996 13.654)">
      <path id="Path_46" d="M12.74,35.481a5.44,5.44,0,1,1,5.44-5.44h0A5.468,5.468,0,0,1,12.74,35.481Zm0-9.565A4.08,4.08,0,1,0,16.821,30a4.073,4.073,0,0,0-4.08-4.08Z" transform="translate(-7.3 -24.6)" fill="#00b0e9" stroke="#00b0e9" stroke-width="0.3"/>
    </g>
    <g id="Group_147" transform="translate(0 43.391)">
      <g id="Group_143" transform="translate(3.389 0)">
        <rect id="Rectangle_32" width="50.894" height="1.36" transform="translate(0)" fill="#00b0e9" stroke="#00b0e9" stroke-width="0.3"/>
      </g>
      <g id="Group_144" transform="translate(56.073 0)">
        <rect id="Rectangle_33" width="1.667" height="1.36" transform="translate(0)" fill="#00b0e9" stroke="#00b0e9" stroke-width="0.3"/>
      </g>
      <g id="Group_145" transform="translate(59.211 0)">
        <rect id="Rectangle_34" width="1.667" height="1.36" fill="#00b0e9" stroke="#00b0e9" stroke-width="0.3"/>
      </g>
      <g id="Group_146" transform="translate(0 0)">
        <rect id="Rectangle_35" width="1.667" height="1.36" fill="#00b0e9" stroke="#00b0e9" stroke-width="0.3"/>
      </g>
    </g>
    <g id="Group_148" transform="translate(8.856 24.425)">
      <path id="Path_47" d="M40.441,45.314H34.869v-13.6l-.395-.439-7.941-.088V45.314H6V25.658A.675.675,0,0,1,6.658,25h0a.675.675,0,0,1,.658.658v18.3H25.129V29.826l9.916.132,1.1,1.272V44h2.9v-7.59a.675.675,0,0,1,.658-.658h0a.675.675,0,0,1,.658.658ZM21.619,38.82H12.625V29.826h8.994Zm-7.678-1.36h6.274V31.186H13.941Z" transform="translate(-6 -25)" fill="#00b0e9" stroke="#00b0e9" stroke-width="0.3"/>
    </g>
    <g id="Group_149" transform="translate(15.489 29.287)">
      <path id="Path_48" d="M15.25,34.15H6.3V25.2h8.994l-.044,8.95ZM7.616,32.834H13.89V26.516H7.616Z" transform="translate(-6.3 -25.2)" fill="#00b0e9" stroke="#00b0e9" stroke-width="0.3"/>
    </g>
    <g id="Group_159" transform="translate(4.487 0)">
      <g id="Group_150" transform="translate(25.135 20.891)">
        <path id="Path_49" d="M11.243,29.626A4.783,4.783,0,0,1,6.9,24.8h1.36a3.554,3.554,0,0,0,3.159,3.51Z" transform="translate(-6.898 -24.8)" fill="#00b0e9" stroke="#00b0e9" stroke-width="0.3"/>
      </g>
      <g id="Group_151" transform="translate(16.742 20.891)">
        <path id="Path_50" d="M11.37,29.67A4.887,4.887,0,0,1,6.5,24.8H7.86a3.51,3.51,0,0,0,7.02,0h1.36A4.916,4.916,0,0,1,11.37,29.67Z" transform="translate(-6.5 -24.8)" fill="#00b0e9" stroke="#00b0e9" stroke-width="0.3"/>
      </g>
      <g id="Group_152" transform="translate(8.349 20.891)">
        <path id="Path_51" d="M10.97,29.67A4.887,4.887,0,0,1,6.1,24.8H7.46a3.51,3.51,0,1,0,7.02,0h1.36A4.887,4.887,0,0,1,10.97,29.67Z" transform="translate(-6.1 -24.8)" fill="#00b0e9" stroke="#00b0e9" stroke-width="0.3"/>
      </g>
      <g id="Group_153" transform="translate(0 14.796)">
        <path id="Path_52" d="M10.67,35.569A4.887,4.887,0,0,1,5.8,30.7V24.6H7.16v6.1a3.51,3.51,0,1,0,7.02,0h1.36A4.887,4.887,0,0,1,10.67,35.569Z" transform="translate(-5.8 -24.6)" fill="#00b0e9" stroke="#00b0e9" stroke-width="0.3"/>
      </g>
      <g id="Group_154" transform="translate(8.393 19.756)">
        <rect id="Rectangle_36" width="1.36" height="1.448" transform="translate(0)" fill="#00b0e9" stroke="#00b0e9" stroke-width="0.3"/>
      </g>
      <g id="Group_155" transform="translate(16.742 19.756)">
        <rect id="Rectangle_37" width="1.36" height="1.448" transform="translate(0)" fill="#00b0e9" stroke="#00b0e9" stroke-width="0.3"/>
      </g>
      <g id="Group_156" transform="translate(25.092 19.756)">
        <rect id="Rectangle_38" width="1.36" height="1.448" transform="translate(0)" fill="#00b0e9" stroke="#00b0e9" stroke-width="0.3"/>
      </g>
      <g id="Group_157" transform="translate(0.043 4.806)">
        <path id="Path_53" d="M35.164,34.961H6.558A.675.675,0,0,1,5.9,34.3a.563.563,0,0,1,.175-.439l8.073-9.345a.727.727,0,0,1,.526-.219H40.341a.639.639,0,0,1,.57.307l1.448,2.106a.658.658,0,0,1-1.053.79h0l-1.272-1.8H15.026l-7.02,7.9H35.12a.675.675,0,0,1,.658.658.625.625,0,0,1-.614.7Z" transform="translate(-5.9 -24.3)" fill="#00b0e9" stroke="#00b0e9" stroke-width="0.3"/>
      </g>
      <g id="Group_158" transform="translate(8.07 0)">
        <path id="Path_54" d="M32.82,30.1H6.1V24H32.82ZM7.46,28.738H31.5V25.316H7.46Z" transform="translate(-6.1 -24)" fill="#00b0e9" stroke="#00b0e9" stroke-width="0.3"/>
      </g>
    </g>
  </g>
</svg>
