<svg xmlns="http://www.w3.org/2000/svg" width="53.007" height="78.539" viewBox="0 0 53.007 78.539">
  <path id="ic_user_account" d="M131.04,69.5V77.23a1.309,1.309,0,0,1-2.618,0V69.5a10.885,10.885,0,0,0-10.891-10.891,8.036,8.036,0,0,1-6.914-3.882,1.309,1.309,0,1,1,2.236-1.362,5.437,5.437,0,0,0,4.678,2.626A13.5,13.5,0,0,1,131.04,69.5ZM108.2,56.379a1.309,1.309,0,0,1-1,1.557,12.527,12.527,0,0,1-9.737-1.9,7.937,7.937,0,0,1-5.921,2.576A10.885,10.885,0,0,0,80.651,69.5V77.23a1.309,1.309,0,0,1-2.618,0V69.5A13.5,13.5,0,0,1,91.542,55.99a5.456,5.456,0,0,0,5.469-5.455v-.345a17.534,17.534,0,0,1-9.967-15.156,5.341,5.341,0,0,1-4.1-5.173V23.076c-.071-3.321.422-11.639,6.486-17.485,7.489-7.219,19.5-6.76,28.329-2.509a1.312,1.312,0,0,1,.277,2.18,17.665,17.665,0,0,1,10.81,7.777,1.446,1.446,0,0,1,.3,1.029,1.324,1.324,0,0,1-.375.83,8.546,8.546,0,0,0-2.473,6.036v8.928a1.309,1.309,0,1,1-2.618,0V20.934a11.141,11.141,0,0,1,2.543-7.115,15.119,15.119,0,0,0-10.852-6.371l-2.3-.246a1.31,1.31,0,0,1-.359-2.512l1.046-.431c-13.626-4.75-28.2.528-28.2,18.8v6.8a2.7,2.7,0,0,0,1.472,2.394V23.771a9.172,9.172,0,0,1,9.162-9.162H112.88a9.172,9.172,0,0,1,9.162,9.161V34.486A17.53,17.53,0,0,1,99.6,51.182a8,8,0,0,1-.685,2.673,9.911,9.911,0,0,0,7.727,1.524A1.309,1.309,0,0,1,108.2,56.379Zm-3.664-7.1a14.9,14.9,0,0,0,14.888-14.888V23.77a6.551,6.551,0,0,0-6.544-6.544H96.193a6.551,6.551,0,0,0-6.544,6.544V34.387A14.9,14.9,0,0,0,104.536,49.275Zm13.252,22.556h-3.926a1.309,1.309,0,0,0,0,2.618h3.926a1.309,1.309,0,0,0,0-2.618Z" transform="translate(-78.033 0)" fill="#007aff"/>
</svg>
