<svg xmlns="http://www.w3.org/2000/svg" width="21.521" height="16.523" viewBox="0 0 21.521 16.523"><g transform="translate(-6.999 0)"><g transform="translate(7)"><path d="M17.379,5.419a6.733,6.733,0,0,0-13.206,0,4.713,4.713,0,0,0,.543,9.4H8.082a.673.673,0,0,0,0-1.347H4.716a3.367,3.367,0,1,1,.04-6.733.673.673,0,0,0,.669-.6,5.387,5.387,0,0,1,10.7,0,.714.714,0,0,0,.709.6,3.367,3.367,0,1,1,0,6.733H13.469a.673.673,0,1,0,0,1.347h3.367a4.713,4.713,0,0,0,.543-9.392Zm0,0" transform="translate(0 0)" fill="#00b0e9"/><path d="M178.142,196.162a.673.673,0,0,0,.969-.935l-.017-.017-2.856-2.856a.673.673,0,0,0-.952,0h0l-2.856,2.856a.673.673,0,1,0,.936.969l.017-.017,1.707-1.708v8.475a.673.673,0,1,0,1.347,0v-8.475Zm0,0" transform="translate(-164.986 -187.079)" fill="#00b0e9"/></g></g></svg>