<svg xmlns="http://www.w3.org/2000/svg" width="23" height="23" viewBox="0 0 23 23"><g transform="translate(11.931 0.216)"><circle cx="11.5" cy="11.5" r="11.5" transform="translate(-11.931 -0.216)" fill="rgba(248,248,248,0.92)"/><g transform="translate(5.767 6.729)"><path d="M.386,4.384a1.028,1.028,0,0,1,1.48.127L4.108,6.8,10.748.324a1.024,1.024,0,0,1,1.48.085,1.022,1.022,0,0,1-.085,1.48l-7.36,7.19a.865.865,0,0,1-.381.211H4.361a.155.155,0,0,1-.127.042H3.854c-.042,0-.127-.042-.169-.042h0A1.986,1.986,0,0,1,3.3,9.037l-3-3.13A1.034,1.034,0,0,1,.386,4.384Z" transform="translate(-12.207 -0.492)" fill="#dedede" stroke="#f8f8f8" stroke-width="0.8"/></g></g></svg>