<svg xmlns="http://www.w3.org/2000/svg" width="61.641" height="68.639" viewBox="0 0 61.641 68.639"><g transform="translate(-389.917 -307.304)"><g transform="translate(390.317 327.553)"><path d="M74.027,12.779H25.909A5.44,5.44,0,0,1,25.77,1.9H38.253V3.643H25.909a3.7,3.7,0,0,0-.139,7.392H74.027S74.027,12.779,74.027,12.779Z" transform="translate(-20.4 -1.9)" fill="#00b0e9" stroke="#00b0e9" stroke-width="0.8"/></g><g transform="translate(446.092 331.613)"><rect width="1.743" height="7.043" transform="translate(0 0)" fill="#00b0e9" stroke="#00b0e9" stroke-width="0.8"/></g><g transform="translate(390.387 332.935)"><path d="M74.058,44.909H25.939A5.446,5.446,0,0,1,20.5,39.469V2.3h1.743V39.4a3.721,3.721,0,0,0,3.7,3.7H74.127a3.721,3.721,0,0,0,3.7-3.7V31.31h1.743v8.159A5.552,5.552,0,0,1,74.058,44.909Z" transform="translate(-20.5 -2.3)" fill="#00b0e9" stroke="#00b0e9" stroke-width="0.8"/></g><g transform="translate(443.953 336.682)"><path d="M30.839,17.135H29.1v-9a3.721,3.721,0,0,0-3.7-3.7V2.7a5.446,5.446,0,0,1,5.439,5.439Z" transform="translate(-25.4 -2.7)" fill="#00b0e9" stroke="#00b0e9" stroke-width="0.8"/></g><g transform="translate(427.029 350.236)"><path d="M47.929,16.453H30.076a6.276,6.276,0,0,1,0-12.553H47.929ZM30.076,5.643a4.533,4.533,0,0,0,0,9.066H46.185V5.643Z" transform="translate(-23.8 -3.9)" fill="#00b0e9" stroke="#00b0e9" stroke-width="0.8"/></g><g transform="translate(430.658 353.693)"><path d="M27.059,10.018A2.872,2.872,0,0,1,24.2,7.159a2.859,2.859,0,1,1,5.718,0h0A2.872,2.872,0,0,1,27.059,10.018Zm0-4.045a1.116,1.116,0,1,0,1.116,1.116,1.147,1.147,0,0,0-1.116-1.116Z" transform="translate(-24.2 -4.3)" fill="#00b0e9" stroke="#00b0e9" stroke-width="0.8"/></g><g transform="translate(395.243 331.978)"><path d="M29.308,3.913h-7.6a.923.923,0,0,1-.907-.907.923.923,0,0,1,.907-.907h7.6a.923.923,0,0,1,.907.907A.879.879,0,0,1,29.308,3.913Z" transform="translate(-20.8 -2.1)" fill="#00b0e9" stroke="#00b0e9" stroke-width="0.8"/></g><g transform="translate(398.607 307.873)"><g transform="translate(0)"><path d="M22.386,30.266,21.2,29.01,51.954,0,72.386,22.176l-8.159,8.089L62.972,29.01l6.9-6.9L51.814,2.511Z" transform="translate(-21.2)" fill="#00b0e9" stroke="#00b0e9" stroke-width="0.8"/></g><g transform="translate(15.816 24.124)"><path d="M24.443,7.771H22.7A5.649,5.649,0,0,1,32.324,3.8,5.864,5.864,0,0,1,34,7.7H32.254a3.81,3.81,0,0,0-1.116-2.65,4,4,0,0,0-5.509,0A3.754,3.754,0,0,0,24.443,7.771Z" transform="translate(-22.7 -2.175)" fill="#00b0e9" stroke="#00b0e9" stroke-width="0.8"/></g><g transform="translate(8.035 11.417)"><path d="M48.818,19.829l-1.255-1.255,3.557-3.557a5.544,5.544,0,0,1,0-6.625L46.168,3.441a5.544,5.544,0,0,1-6.625,0L23.155,19.829,21.9,18.574,39.543,1.07l.558.558a3.872,3.872,0,0,0,5.509,0L46.238,1,53.56,8.322l-.628.628a3.872,3.872,0,0,0,0,5.509l.628.628Z" transform="translate(-21.9 -1)" fill="#00b0e9" stroke="#00b0e9" stroke-width="0.8"/></g><g transform="translate(27.427 7.707)"><rect width="1.674" height="1.743" transform="translate(0 1.184) rotate(-45.041)" fill="#00b0e9" stroke="#00b0e9" stroke-width="0.8"/></g><g transform="translate(41.015 21.403)"><rect width="1.674" height="1.743" transform="translate(0 1.184) rotate(-45.041)" fill="#00b0e9" stroke="#00b0e9" stroke-width="0.8"/></g><g transform="translate(28.162 20.05)"><g transform="translate(0 0)"><rect width="2.511" height="1.743" transform="matrix(0.707, -0.707, 0.707, 0.707, 0, 1.775)" fill="#00b0e9" stroke="#00b0e9" stroke-width="0.8"/></g></g></g></g></svg>