<svg xmlns="http://www.w3.org/2000/svg" width="99.279" height="67.805" viewBox="0 0 99.279 67.805"><g transform="translate(-432.118 -400.986)"><g transform="translate(482.552 401.386)"><g transform="translate(0)"><path d="M21.423,87.559a1.082,1.082,0,0,1-1.08-.926C18.8,77.454,13.4,71.668,8.231,66.037,2.6,60.02-2.8,54.234-2.8,44.823a24.223,24.223,0,0,1,48.445-.077h0c0,9.411-5.323,15.2-11.031,21.291C29.445,71.668,24.045,77.454,22.5,86.711A1.088,1.088,0,0,1,21.423,87.559Zm0-64.8A22.058,22.058,0,0,0-.64,44.823c0,8.563,5.091,14.04,10.414,19.825,4.551,4.937,9.257,9.951,11.648,17.28,2.391-7.328,7.02-12.42,11.648-17.28,5.4-5.786,10.414-11.186,10.414-19.825A22.058,22.058,0,0,0,21.423,22.76Z" transform="translate(2.8 -20.6)" fill="#00b0e9" stroke="#00b0e9" stroke-width="0.8"/></g><g transform="translate(15.048 14.016)"><path d="M5.58,38.237A9.17,9.17,0,0,1-3.6,28.98,9.1,9.1,0,0,1,5.58,19.8a9.218,9.218,0,0,1,9.18,9.257h0A9.2,9.2,0,0,1,5.58,38.237Zm0-16.277a7.1,7.1,0,1,0,7.1,7.174,7.078,7.078,0,0,0-7.1-7.174Z" transform="translate(3.6 -19.8)" fill="#00b0e9" stroke="#00b0e9" stroke-width="0.8"/></g></g><g transform="translate(432.518 466.2)"><g transform="translate(5.39 0)"><rect width="81.462" height="2.16" transform="translate(0)" fill="#00b0e9" stroke="#00b0e9" stroke-width="0.8"/></g><g transform="translate(89.676 0)"><rect width="2.7" height="2.16" rx="1" transform="translate(0)" fill="#00b0e9" stroke="#00b0e9" stroke-width="0.8"/></g><g transform="translate(94.714 0)"><rect width="2.7" height="2.16" rx="1" transform="translate(0)" fill="#00b0e9" stroke="#00b0e9" stroke-width="0.8"/></g><g transform="translate(0 0)"><rect width="2.7" height="2.16" fill="#00b0e9" stroke="#00b0e9" stroke-width="0.8"/></g></g><g transform="translate(442.2 406.539)"><g transform="translate(4.483 32.229)"><path d="M54.479,48.023H45.531V25.728l-.386-.386H32.185v22.6H-.6V19.48A1.055,1.055,0,0,1,.48,18.4h0a1.055,1.055,0,0,1,1.08,1.08h0V45.863H30.1V23.183H46.071l1.7,1.62v21.06H52.4V33.134a1.055,1.055,0,0,1,1.08-1.08h0a1.055,1.055,0,0,1,1.08,1.08ZM24.317,37.608H9.968V23.183H24.317Zm-12.188-2.16H22.157V25.42H12.128Z" transform="translate(0.6 -18.4)" fill="#00b0e9" stroke="#00b0e9" stroke-width="0.8"/></g><g transform="translate(0 0)"><path d="M5.071,54.611a1.239,1.239,0,0,1-.849-.386l-4.4-5.014A1.172,1.172,0,0,1-.1,47.668h0L30.836,20.514a.978.978,0,0,1,1.389,0l10.8,9.566a1.092,1.092,0,0,1-1.466,1.62h0L31.53,22.829,2.216,48.594l3.009,3.394,25.611-22.68a1.072,1.072,0,0,1,1.466,0l9.411,8.563a1.092,1.092,0,0,1-1.466,1.62h0L31.53,31.623,5.765,54.38A1.077,1.077,0,0,1,5.071,54.611Z" transform="translate(0.429 -20.225)" fill="#00b0e9" stroke="#00b0e9" stroke-width="0.8"/></g><g transform="translate(15.014 37.02)"><path d="M13.126,32.526H-1.3V18.1H13.048S13.048,32.526,13.126,32.526ZM.86,30.366H10.966V20.337H.86Z" transform="translate(1.3 -18.1)" fill="#00b0e9" stroke="#00b0e9" stroke-width="0.8"/></g><g transform="translate(26.424 20.801)"><path d="M3.554,30.208a5.554,5.554,0,1,1,0-11.108,5.531,5.531,0,0,1,5.554,5.554h0A5.531,5.531,0,0,1,3.554,30.208Zm0-8.948a3.394,3.394,0,1,0,0,6.788,3.424,3.424,0,0,0,3.394-3.394A3.375,3.375,0,0,0,3.554,21.26Z" transform="translate(2 -19.1)" fill="#00b0e9" stroke="#00b0e9" stroke-width="0.8"/></g></g><g transform="translate(449.599 412.008)"><path d="M-.8,38.823V20H9V30.183ZM1.36,22.16V34.04l5.477-4.86V22.16Z" transform="translate(0.8 -20)" fill="#00b0e9" stroke="#00b0e9" stroke-width="0.8"/></g></g></svg>