<svg xmlns="http://www.w3.org/2000/svg" width="32.689" height="30.008" viewBox="0 0 32.689 30.008"><path d="M23.807,21.333c-3.57,0-6.519,3.317-7.712,4.882-1.193-1.565-4.142-4.882-7.712-4.882C3.76,21.333,0,25.583,0,30.806a9.9,9.9,0,0,0,3.111,7.323.663.663,0,0,0,.105.137l12.4,12.38a.67.67,0,0,0,.948,0L29.386,37.831l.132-.128c.1-.1.208-.2.324-.327a.652.652,0,0,0,.119-.16,10.125,10.125,0,0,0,2.227-6.41C32.189,25.583,28.429,21.333,23.807,21.333Zm5.039,15.128a.626.626,0,0,0-.05.068c-.063.072-.132.136-.2.2l-12.5,12.493L4.317,37.469a.673.673,0,0,0-.156-.2,8.529,8.529,0,0,1-2.82-6.463c0-4.484,3.159-8.131,7.041-8.131,3.839,0,7.115,5.008,7.148,5.058a.7.7,0,0,0,1.128,0c.033-.05,3.309-5.058,7.148-5.058,3.883,0,7.041,3.648,7.041,8.131A8.771,8.771,0,0,1,28.846,36.461Z" transform="translate(0.25 -21.083)" stroke="#000" stroke-width="0.5"/></svg>