<svg xmlns="http://www.w3.org/2000/svg" width="46.726" height="27.732" viewBox="0 0 46.726 27.732"><g transform="translate(-5.493 -6.866)"><path d="M47.463,27.732A13.732,13.732,0,1,1,33.732,14,13.731,13.731,0,0,1,47.463,27.732Z" transform="translate(3.344 -7.134)" fill="#ffc107"/><path d="M27.619,35.971A13.676,13.676,0,0,1,26,33.224h7.311a13.659,13.659,0,0,0,.874-2.746H25.13a13.589,13.589,0,0,1-.279-2.746h9.612a13.985,13.985,0,0,0-.274-2.746H25.125A13.681,13.681,0,0,1,26,22.239h7.311A13.676,13.676,0,0,0,31.7,19.493H27.619A13.777,13.777,0,0,1,29.652,17.3,13.735,13.735,0,1,0,31.7,35.971Z" transform="translate(-1.507 -7.134)" fill="#ff3d00"/><g transform="translate(6 -93.934)"><path d="M229.331,114.666a13.866,13.866,0,0,1-27.731,0h0a13.866,13.866,0,1,1,27.731,0Z" transform="translate(-183.112 0)" fill="#ffb600"/><path d="M215.466,100.8a13.9,13.9,0,0,1,13.866,13.866h0a13.866,13.866,0,1,1-27.731,0" transform="translate(-183.112)" fill="#f7981d"/><path d="M352.8,100.8a13.9,13.9,0,0,1,13.866,13.866h0A13.855,13.855,0,0,1,352.8,128.531" transform="translate(-320.447)" fill="#ff8500"/><path d="M13.719,100.8a13.866,13.866,0,0,0,.147,27.731,14.027,14.027,0,0,0,9.317-3.595h0a13.182,13.182,0,0,0,1.394-1.467H21.716a16.923,16.923,0,0,1-1.027-1.394H25.6a9.4,9.4,0,0,0,.807-1.467H19.882a8.744,8.744,0,0,1-.587-1.467h7.63a14.568,14.568,0,0,0,.734-4.4,18.937,18.937,0,0,0-.293-2.935h-8.51a10.725,10.725,0,0,1,.367-1.467h7.63a8.744,8.744,0,0,0-.587-1.467H19.808a14.549,14.549,0,0,1,.807-1.467h4.915a6.976,6.976,0,0,0-1.1-1.467H21.716a12.5,12.5,0,0,1,1.394-1.394,13.538,13.538,0,0,0-9.317-3.595C13.792,100.8,13.792,100.8,13.719,100.8Z" fill="#ff5050"/><path d="M0,116.119a13.855,13.855,0,0,0,13.866,13.866,14.027,14.027,0,0,0,9.317-3.595h0a13.181,13.181,0,0,0,1.394-1.467H21.716a16.922,16.922,0,0,1-1.027-1.394H25.6a9.4,9.4,0,0,0,.807-1.467H19.882a8.744,8.744,0,0,1-.587-1.467h7.63a14.568,14.568,0,0,0,.734-4.4,18.937,18.937,0,0,0-.293-2.935h-8.51a10.725,10.725,0,0,1,.367-1.467h7.63a8.745,8.745,0,0,0-.587-1.467H19.808a14.551,14.551,0,0,1,.807-1.467h4.915a6.977,6.977,0,0,0-1.1-1.467H21.716a12.5,12.5,0,0,1,1.394-1.394,13.538,13.538,0,0,0-9.317-3.595h-.073" transform="translate(0 -1.453)" fill="#e52836"/><path d="M149.747,129.985a14.027,14.027,0,0,0,9.317-3.595h0a13.18,13.18,0,0,0,1.394-1.467H157.6a16.933,16.933,0,0,1-1.027-1.394h4.915a9.4,9.4,0,0,0,.807-1.467h-6.529a8.745,8.745,0,0,1-.587-1.467h7.63a14.568,14.568,0,0,0,.734-4.4,18.937,18.937,0,0,0-.293-2.935h-8.51a10.725,10.725,0,0,1,.367-1.467h7.63a8.747,8.747,0,0,0-.587-1.467h-6.456a14.558,14.558,0,0,1,.807-1.467h4.915a6.976,6.976,0,0,0-1.1-1.467H157.6a12.5,12.5,0,0,1,1.394-1.394,13.538,13.538,0,0,0-9.317-3.595H149.6" transform="translate(-135.881 -1.453)" fill="#cb2026"/><g transform="translate(1.321 111.071)"><path d="M183.728,226.456l.22-1.247a3.177,3.177,0,0,1-.367.073c-.514,0-.587-.293-.514-.44l.44-2.568h.807l.22-1.394H183.8l.147-.88H182.48s-.88,4.842-.88,5.429a1.1,1.1,0,0,0,1.174,1.247A2.252,2.252,0,0,0,183.728,226.456Z" transform="translate(-166.267 -219.34)" fill="#fff"/><path d="M210.4,232.009a2.334,2.334,0,0,0,2.568,2.568,3.809,3.809,0,0,0,1.541-.22l.293-1.394a4.4,4.4,0,0,1-1.541.367c-1.614,0-1.321-1.174-1.321-1.174h3.008a9.512,9.512,0,0,0,.22-1.321,1.988,1.988,0,0,0-2.128-2.128C211.5,228.561,210.4,230.175,210.4,232.009Zm2.568-2.128c.807,0,.66.954.66,1.027h-1.614C212.014,230.836,212.161,229.882,212.968,229.882Z" transform="translate(-192.426 -227.241)" fill="#fff"/><path d="M300.035,219.916l.293-1.614a3.605,3.605,0,0,1-1.247.367c-1.027,0-1.467-.807-1.467-1.687,0-1.761.88-2.714,1.907-2.714a2.45,2.45,0,0,1,1.321.44l.22-1.541a5.159,5.159,0,0,0-1.687-.367c-1.687,0-3.375,1.467-3.375,4.255,0,1.834.88,3.081,2.641,3.081A6.585,6.585,0,0,0,300.035,219.916Z" transform="translate(-270.176 -212.8)" fill="#fff"/><path d="M89.188,227.2a5.2,5.2,0,0,0-1.761.293l-.22,1.247a4.336,4.336,0,0,1,1.614-.293c.514,0,.954.073.954.514,0,.293-.073.367-.073.367h-.66c-1.247,0-2.641.514-2.641,2.2,0,1.321.88,1.614,1.394,1.614a2.2,2.2,0,0,0,1.541-.66l-.073.587h1.321l.587-4.035A1.739,1.739,0,0,0,89.188,227.2Zm.293,3.3c0,.22-.147,1.394-1.027,1.394a.573.573,0,0,1-.587-.587c0-.367.22-.88,1.321-.88A1.157,1.157,0,0,0,89.481,230.5Z" transform="translate(-79.797 -225.879)" fill="#fff"/><path d="M136.887,232.416a1.88,1.88,0,0,0,2.2-1.907c0-1.834-1.761-1.467-1.761-2.2,0-.367.293-.514.807-.514.22,0,1.027.073,1.027.073l.22-1.321a5.573,5.573,0,0,0-1.394-.147c-1.1,0-2.2.44-2.2,1.907,0,1.687,1.834,1.541,1.834,2.2,0,.44-.514.514-.88.514a4.8,4.8,0,0,1-1.321-.22l-.22,1.321C135.273,232.269,135.64,232.416,136.887,232.416Z" transform="translate(-124.122 -225.153)" fill="#fff"/><path d="M431.382,214.4l-.293,1.981a2.034,2.034,0,0,0-1.394-.734c-1.321,0-2.494,1.614-2.494,3.521,0,1.174.587,2.421,1.834,2.421a1.958,1.958,0,0,0,1.394-.587l-.073.514h1.467l1.1-7.043Zm-.66,3.888c0,.807-.367,1.834-1.174,1.834-.514,0-.807-.44-.807-1.174,0-1.174.514-1.907,1.174-1.907C430.428,217.041,430.721,217.408,430.721,218.288Z" transform="translate(-389.344 -214.253)" fill="#fff"/><path d="M15.794,221.443l.88-5.282.147,5.282h1.027l1.907-5.282-.807,5.282h1.541l1.174-7.043H19.242l-1.467,4.328L17.7,214.4H15.574L14.4,221.443Z" transform="translate(-14.4 -214.253)" fill="#fff"/><path d="M261.614,234.522c.44-2.421.514-4.4,1.541-4.035a5.757,5.757,0,0,1,.514-1.687h-.293c-.66,0-1.174.88-1.174.88l.147-.807h-1.394L260,234.6h1.614Z" transform="translate(-237.477 -227.333)" fill="#fff"/><path d="M349.188,227.2a5.2,5.2,0,0,0-1.761.293l-.22,1.247a4.336,4.336,0,0,1,1.614-.293c.514,0,.954.073.954.514,0,.293-.073.367-.073.367h-.66c-1.247,0-2.641.514-2.641,2.2,0,1.321.88,1.614,1.394,1.614a2.2,2.2,0,0,0,1.541-.66l-.073.587h1.321l.587-4.035A1.713,1.713,0,0,0,349.188,227.2Zm.367,3.3c0,.22-.147,1.394-1.027,1.394a.573.573,0,0,1-.587-.587c0-.367.22-.88,1.321-.88C349.481,230.5,349.481,230.5,349.555,230.5Z" transform="translate(-315.954 -225.879)" fill="#fff"/><path d="M396.014,234.522c.44-2.421.514-4.4,1.541-4.035a5.756,5.756,0,0,1,.514-1.687h-.294c-.66,0-1.174.88-1.174.88l.147-.807h-1.394L394.4,234.6h1.614Z" transform="translate(-359.552 -227.333)" fill="#fff"/></g><g transform="translate(1.321 111.071)"><path d="M180,225.429a1.1,1.1,0,0,0,1.174,1.247,2.792,2.792,0,0,0,1.1-.22l.22-1.247a3.176,3.176,0,0,1-.367.073c-.514,0-.587-.293-.514-.44l.44-2.568h.807l.22-1.394h-.734l.147-.88" transform="translate(-164.814 -219.34)" fill="#dce5e5"/><path d="M218.4,232.009c0,2.054.66,2.568,1.834,2.568a3.809,3.809,0,0,0,1.541-.22l.293-1.394a4.4,4.4,0,0,1-1.541.367c-1.614,0-1.321-1.174-1.321-1.174h3.008a9.512,9.512,0,0,0,.22-1.321,1.988,1.988,0,0,0-2.128-2.128C218.767,228.561,218.4,230.175,218.4,232.009Zm1.834-2.128c.807,0,.954.954.954,1.027H219.28C219.28,230.836,219.427,229.882,220.234,229.882Z" transform="translate(-199.692 -227.241)" fill="#dce5e5"/><path d="M307.3,219.916l.293-1.614a3.605,3.605,0,0,1-1.247.367c-1.027,0-1.467-.807-1.467-1.687,0-1.761.88-2.714,1.907-2.714a2.45,2.45,0,0,1,1.321.44l.22-1.541a5.159,5.159,0,0,0-1.687-.367c-1.687,0-2.641,1.467-2.641,4.255,0,1.834.147,3.081,1.907,3.081A6.585,6.585,0,0,0,307.3,219.916Z" transform="translate(-277.442 -212.8)" fill="#dce5e5"/><path d="M87.207,230.267a4.337,4.337,0,0,1,1.614-.293c.514,0,.954.073.954.514,0,.293-.073.367-.073.367h-.66c-1.247,0-2.641.514-2.641,2.2,0,1.321.88,1.614,1.394,1.614a2.2,2.2,0,0,0,1.541-.66l-.073.587h1.321l.587-4.035c0-1.687-1.467-1.761-2.054-1.761m1.1,3.155a2.4,2.4,0,0,1-1.761,1.394.573.573,0,0,1-.587-.587c0-.367.22-.88,1.321-.88A5.994,5.994,0,0,0,90.215,231.955Z" transform="translate(-79.797 -227.333)" fill="#dce5e5"/><path d="M136,232.269a6.21,6.21,0,0,0,1.687.147,1.88,1.88,0,0,0,2.2-1.907c0-1.834-1.761-1.467-1.761-2.2,0-.367.293-.514.807-.514.22,0,1.027.073,1.027.073l.22-1.321a5.573,5.573,0,0,0-1.394-.147c-1.1,0-1.467.44-1.467,1.907,0,1.687,1.1,1.541,1.1,2.2,0,.44-.514.514-.88.514" transform="translate(-124.849 -225.153)" fill="#dce5e5"/><path d="M438.3,217.107a2.034,2.034,0,0,0-1.394-.734c-1.321,0-1.761,1.614-1.761,3.521,0,1.174-.147,2.421,1.1,2.421a1.958,1.958,0,0,0,1.394-.587l-.073.514h1.467l1.1-7.043m-1.907,3.815c0,.807-.66,1.834-1.467,1.834-.514,0-.807-.44-.807-1.174,0-1.174.514-1.907,1.174-1.907A1.121,1.121,0,0,1,438.229,219.015Z" transform="translate(-396.558 -214.98)" fill="#dce5e5"/><path d="M15.794,221.443l.88-5.282.147,5.282h1.027l1.907-5.282-.807,5.282h1.541l1.174-7.043H19.829l-2.054,4.328L17.7,214.4h-.807L14.4,221.443Z" transform="translate(-14.4 -214.253)" fill="#dce5e5"/><path d="M260.8,234.522h1.541c.44-2.421.514-4.4,1.541-4.035a5.758,5.758,0,0,1,.514-1.687H264.1c-.66,0-1.174.88-1.174.88l.147-.807" transform="translate(-238.204 -227.333)" fill="#dce5e5"/><path d="M347.207,230.267a4.336,4.336,0,0,1,1.614-.293c.514,0,.954.073.954.514,0,.293-.073.367-.073.367h-.66c-1.247,0-2.641.514-2.641,2.2,0,1.321.88,1.614,1.394,1.614a2.2,2.2,0,0,0,1.541-.66l-.073.587h1.321l.587-4.035c0-1.687-1.467-1.761-2.054-1.761m1.1,3.155a2.4,2.4,0,0,1-1.761,1.394.573.573,0,0,1-.587-.587c0-.367.22-.88,1.321-.88A6.455,6.455,0,0,0,350.215,231.955Z" transform="translate(-315.954 -227.333)" fill="#dce5e5"/><path d="M395.2,234.522h1.541c.44-2.421.514-4.4,1.541-4.035a5.758,5.758,0,0,1,.514-1.687H398.5c-.66,0-1.174.88-1.174.88l.147-.807" transform="translate(-360.279 -227.333)" fill="#dce5e5"/></g></g></g></svg>