<svg xmlns="http://www.w3.org/2000/svg" width="46.412" height="14.071" viewBox="0 0 46.412 14.071"><g transform="translate(0 -175.6)"><path d="M184.8,193.661l2.357-13.261h3.684l-2.284,13.261Z" transform="translate(-167.782 -4.358)" fill="#3c58bf"/><path d="M184.8,193.661l3.02-13.261h3.02l-2.284,13.261Z" transform="translate(-167.782 -4.358)" fill="#293688"/><path d="M259.271,176.189a9.344,9.344,0,0,0-3.389-.589c-3.684,0-6.336,1.842-6.336,4.494,0,1.989,1.842,3.02,3.315,3.684s1.915,1.105,1.915,1.694c0,.884-1.179,1.326-2.21,1.326a8.008,8.008,0,0,1-3.536-.737l-.516-.221-.516,3.02a11.945,11.945,0,0,0,4.2.737c3.9,0,6.483-1.842,6.483-4.641,0-1.547-.958-2.726-3.168-3.684-1.326-.663-2.136-1.031-2.136-1.694,0-.589.663-1.179,2.136-1.179a6.757,6.757,0,0,1,2.8.516l.368.147.589-2.873Z" transform="translate(-225.162)" fill="#3c58bf"/><path d="M259.271,176.189a9.344,9.344,0,0,0-3.389-.589c-3.684,0-5.673,1.842-5.673,4.494a3.851,3.851,0,0,0,2.652,3.684c1.473.663,1.915,1.105,1.915,1.694,0,.884-1.179,1.326-2.21,1.326a8.008,8.008,0,0,1-3.536-.737l-.516-.221-.516,3.02a11.945,11.945,0,0,0,4.2.737c3.9,0,6.483-1.842,6.483-4.641,0-1.547-.958-2.726-3.168-3.684-1.326-.663-2.136-1.031-2.136-1.694,0-.589.663-1.179,2.136-1.179a6.757,6.757,0,0,1,2.8.516l.368.147.589-2.873Z" transform="translate(-225.162)" fill="#293688"/><path d="M365.841,180.4c-.884,0-1.547.074-1.915.958l-5.525,12.3h3.978l.737-2.21h4.715l.442,2.21h3.536L368.714,180.4Zm-1.694,8.84c.221-.663,1.473-3.9,1.473-3.9s.295-.81.516-1.326l.221,1.252s.737,3.315.884,4.052h-3.094Z" transform="translate(-325.396 -4.358)" fill="#3c58bf"/><path d="M366.725,180.4c-.884,0-1.547.074-1.915.958l-6.409,12.3h3.978l.737-2.21h4.715l.442,2.21h3.536L368.714,180.4Zm-2.578,8.84c.295-.737,1.473-3.9,1.473-3.9s.295-.81.516-1.326l.221,1.252s.737,3.315.884,4.052h-3.094Z" transform="translate(-325.396 -4.358)" fill="#293688"/><path d="M56.725,190.409l-.368-1.915a10.679,10.679,0,0,0-5.157-5.82l3.315,11.787h3.978L64.461,181.2H60.482Z" transform="translate(-46.485 -5.084)" fill="#3c58bf"/><path d="M56.725,190.409l-.368-1.915a10.679,10.679,0,0,0-5.157-5.82l3.315,11.787h3.978L64.461,181.2H61.219Z" transform="translate(-46.485 -5.084)" fill="#293688"/><path d="M0,180.4l.663.147c4.715,1.105,7.956,3.9,9.209,7.22l-1.326-6.262c-.221-.884-.884-1.105-1.694-1.105Z" transform="translate(0 -4.358)" fill="#ffbc00"/><path d="M0,180.4H0c4.715,1.105,8.619,3.978,9.872,7.293l-1.252-5.231a1.8,1.8,0,0,0-1.768-1.4Z" transform="translate(0 -4.358)" fill="#f7981d"/><path d="M0,180.4H0c4.715,1.105,8.619,3.978,9.872,7.293l-.884-2.873a2.6,2.6,0,0,0-1.547-2.136Z" transform="translate(0 -4.358)" fill="#ed7c00"/><g transform="translate(4.789 177.515)"><path d="M61.135,203.767l-2.5-2.5-1.179,2.8-.295-1.842A10.679,10.679,0,0,0,52,196.4l3.315,11.787h3.978Z" transform="translate(-52 -196.4)" fill="#051244"/><path d="M188.557,292.441l-3.168-3.241-.589,3.241Z" transform="translate(-172.571 -280.654)" fill="#051244"/><path d="M254.409,274.8h0c.295.295.442.516.368.81,0,.884-1.179,1.326-2.21,1.326a8.007,8.007,0,0,1-3.536-.737l-.516-.221L248,279a11.945,11.945,0,0,0,4.2.737,7.294,7.294,0,0,0,5.378-1.842Z" transform="translate(-229.951 -267.58)" fill="#051244"/><path d="M364,229.251h3.462l.737-2.21h4.715l.442,2.21h3.536l-1.252-5.378-4.42-4.273.221,1.179s.737,3.315.884,4.052h-3.094c.295-.737,1.473-3.9,1.473-3.9s.295-.81.516-1.326" transform="translate(-335.269 -217.464)" fill="#051244"/></g></g></svg>