<svg xmlns="http://www.w3.org/2000/svg" width="17.718" height="17.097" viewBox="0 0 17.718 17.097"><g transform="translate(-13.5 -14.498)"><g transform="translate(13.5 14.5)"><path d="M23.276,17.165V15.138a.638.638,0,1,0-1.276,0v2.085m0,4.334v9.4h0a.638.638,0,1,0,1.276,0V21.54" transform="translate(-19.832 -14.5)" fill-rule="evenodd"/><path d="M19.228,25.112a2.864,2.864,0,1,0-2.863,2.862,2.864,2.864,0,0,0,2.863-2.862Zm-4.453,0A1.589,1.589,0,1,1,16.364,26.7a1.589,1.589,0,0,1-1.589-1.588Z" transform="translate(-13.5 -20.273)" fill-rule="evenodd"/><path d="M70.276,17.165V15.138a.638.638,0,1,0-1.276,0v2.085m0,4.334v9.4h0a.638.638,0,1,0,1.276,0V21.54" transform="translate(-54.841 -14.5)" fill-rule="evenodd"/><path d="M66.228,25.112a2.864,2.864,0,1,0-2.863,2.862,2.864,2.864,0,0,0,2.863-2.862Zm-4.453,0A1.589,1.589,0,1,1,63.364,26.7a1.589,1.589,0,0,1-1.589-1.588Z" transform="translate(-48.51 -20.273)" fill-rule="evenodd"/><path d="M1.276,2.665V.638A.638.638,0,0,0,0,.638V2.723M0,7.057v9.4H0a.638.638,0,1,0,1.276,0V7.04" transform="translate(9.567 17.093) rotate(180)" fill-rule="evenodd"/><path d="M5.728,2.862A2.864,2.864,0,1,0,2.865,5.724,2.864,2.864,0,0,0,5.728,2.862Zm-4.453,0A1.589,1.589,0,1,1,2.864,4.449,1.589,1.589,0,0,1,1.275,2.862Z" transform="translate(11.735 15.116) rotate(180)" fill-rule="evenodd"/></g></g></svg>