<svg xmlns="http://www.w3.org/2000/svg" width="95.726" height="69.377" viewBox="0 0 95.726 69.377"><g transform="translate(-510.471 -312.841)"><g transform="translate(510.871 313.288)"><path d="M89.511,54.185h-4.4V52.028h4.4a12.254,12.254,0,0,0,0-24.507h0a1.094,1.094,0,0,0-.518.086c-.173,0-.345.086-.518.086l-1.381.086.259-1.381a19.694,19.694,0,0,0,.345-3.883,20.2,20.2,0,0,0-37.882-9.837l-.518.949-.949-.518A15.7,15.7,0,0,0,25.309,27a2.936,2.936,0,0,0,.086.863l.086,1.294-1.64-.086a4.921,4.921,0,0,0-1.122-.086,11.563,11.563,0,0,0,0,23.126v2.157a13.764,13.764,0,0,1-.086-27.527h.518A17.862,17.862,0,0,1,41.187,8.968a18.159,18.159,0,0,1,7.335,1.64A22.361,22.361,0,0,1,89.943,22.43c0,.949-.086,1.985-.173,2.934a14.412,14.412,0,0,1-.259,28.822Z" transform="translate(-9 0.047)" fill="#00b0e9" stroke="#00b0e9" stroke-width="0.8"/></g><g transform="translate(523.408 361.073)"><path d="M18.536,8.064H6.8V-7.9H18.45v2.157H8.957V5.907H18.45V8.064Z" transform="translate(-6.8 7.9)" fill="#00b0e9" stroke="#00b0e9" stroke-width="0.8"/></g><g transform="translate(557.239 347.344)"><path d="M32.006,22.531H23.55V20.374h6.213V-3.443H3.357V.009H1.2V-5.6H32.006Z" transform="translate(-1.2 5.6)" fill="#00b0e9" stroke="#00b0e9" stroke-width="0.8"/></g><g transform="translate(546.89 335.666)"><path d="M5.144,13.559H2.9V-3.7H38.194V4.929H36.036V-1.456H5.144Z" transform="translate(-2.9 3.7)" fill="#00b0e9" stroke="#00b0e9" stroke-width="0.8"/></g><g transform="translate(538.454 356.361)"><path d="M42.1,18.356H4.3V-7.1H42.1ZM6.544,16.2h33.4V-4.943H6.544Z" transform="translate(-4.3 7.1)" fill="#00b0e9" stroke="#00b0e9" stroke-width="0.8"/></g><g transform="translate(538.426 363.648)"><g transform="translate(0 0)"><path d="M5.853,6.788,4.3,5.234,18.366-8.4,29.325,1.437l-1.467,1.64L18.366-5.38Z" transform="translate(-4.3 8.4)" fill="#00b0e9" stroke="#00b0e9" stroke-width="0.8"/></g><g transform="translate(19.998 2.043)"><path d="M16.792,1.483,6.954-5.939,2.381-2.487,1-4.213,6.954-8.7,18.172-.243Z" transform="translate(-1 8.7)" fill="#00b0e9" stroke="#00b0e9" stroke-width="0.8"/></g></g><g transform="translate(595.759 347.45)"><path d="M-3.647,5.963-5.2,4.41a5.989,5.989,0,0,0,0-8.457h0L-3.647-5.6a8.176,8.176,0,0,1,0,11.563Z" transform="translate(5.2 5.6)" fill="#00b0e9" stroke="#00b0e9" stroke-width="0.8"/></g></g></svg>