<svg xmlns="http://www.w3.org/2000/svg" width="27.587" height="33.107" viewBox="0 0 27.587 33.107"><g transform="translate(0.4 0.4)"><path d="M16.149,26.989a5.29,5.29,0,0,1,.355-1.911L8.986,20.2a5.318,5.318,0,1,1,.075-7.621l7.625-4.932a5.328,5.328,0,1,1,1.491,1.849l-7.847,5.074a5.315,5.315,0,0,1-.037,3.664l7.53,4.887a5.316,5.316,0,1,1-1.673,3.87Zm2.367,0a2.953,2.953,0,1,0,2.952-2.955A2.953,2.953,0,0,0,18.516,26.989ZM2.363,16.351A2.953,2.953,0,1,0,5.318,13.4,2.959,2.959,0,0,0,2.363,16.351ZM18.516,5.319a2.953,2.953,0,1,0,2.952-2.952A2.954,2.954,0,0,0,18.516,5.319Z" transform="translate(0 0)" stroke="#fff" stroke-width="0.8"/></g></svg>