<svg xmlns="http://www.w3.org/2000/svg" width="98.741" height="72.06" viewBox="0 0 98.741 72.06"><g transform="translate(-505.144 -198.775)"><g transform="translate(571.421 235.608)"><path d="M24.049,59.579H6.5V24.9h8.774c2.3,0,8.774,6.476,8.774,8.774ZM8.659,57.421H21.89V33.674c-.209-1.323-5.292-6.407-6.616-6.546H8.659Z" transform="translate(-6.5 -24.9)" fill="#00b0e9" stroke="#00b0e9" stroke-width="1"/></g><g transform="translate(552.239 237.215)"><path d="M10.457,31.476H8.3V27.159H6V25h4.526Z" transform="translate(-6 -25)" fill="#00b0e9" stroke="#00b0e9" stroke-width="1"/></g><g transform="translate(559.717 237.215)"><path d="M13.721,31.476H11.562V27.159h-3.2v4.318H6.2V25h7.521Z" transform="translate(-6.2 -25)" fill="#00b0e9" stroke="#00b0e9" stroke-width="1"/></g><g transform="translate(553.77 223.801)"><path d="M13.59,31.176H11.432V26.859H8.159v4.318H6V24.7h7.59Z" transform="translate(-6 -24.7)" fill="#00b0e9" stroke="#00b0e9" stroke-width="1"/></g><g transform="translate(549.149 246.469)"><path d="M13.49,31.676H11.332V27.359H8.059v4.318H5.9V25.2h7.59Z" transform="translate(-5.9 -25.2)" fill="#00b0e9" stroke="#00b0e9" stroke-width="1"/></g><g transform="translate(559.717 246.469)"><path d="M13.721,31.676H11.562V27.359h-3.2v4.318H6.2V25.2h7.521Z" transform="translate(-6.2 -25.2)" fill="#00b0e9" stroke="#00b0e9" stroke-width="1"/></g><g transform="translate(549.149 255.792)"><path d="M13.49,31.976H11.332V27.659H8.059v4.318H5.9V25.5h7.59Z" transform="translate(-5.9 -25.5)" fill="#00b0e9" stroke="#00b0e9" stroke-width="1"/></g><g transform="translate(559.717 255.792)"><path d="M13.721,31.976H11.562V27.659h-3.2v4.318H6.2V25.5h7.521Z" transform="translate(-6.2 -25.5)" fill="#00b0e9" stroke="#00b0e9" stroke-width="1"/></g><g transform="translate(576.402 246.469)"><path d="M14.19,31.676H12.032V27.359H8.759v4.318H6.6V25.2h7.59Z" transform="translate(-6.6 -25.2)" fill="#00b0e9" stroke="#00b0e9" stroke-width="1"/></g><g transform="translate(576.402 255.792)"><path d="M14.19,31.976H12.032V27.659H8.759v4.318H6.6V25.5h7.59Z" transform="translate(-6.6 -25.5)" fill="#00b0e9" stroke="#00b0e9" stroke-width="1"/></g><g transform="translate(556.504 199.275)"><rect width="2.159" height="8.426" transform="translate(0 0)" fill="#00b0e9" stroke="#00b0e9" stroke-width="1"/></g><g transform="translate(505.644 207.194)"><g transform="translate(0 0)"><path d="M27.641,87.292a1,1,0,0,1-1.045-.905C25.134,77.751,20.12,72.32,15.176,67.027,9.814,61.386,4.8,55.955,4.8,47.041a22.841,22.841,0,0,1,45.682,0c0,8.914-5.014,14.345-10.376,20.056-4.875,5.223-9.958,10.655-11.421,19.359A1.05,1.05,0,0,1,27.641,87.292Zm0-60.933A20.685,20.685,0,0,0,6.959,47.041c0,8.078,4.735,13.161,9.819,18.593,4.248,4.6,8.635,9.262,10.863,16.086C29.869,74.9,34.257,70.161,38.5,65.634c5.014-5.432,9.819-10.515,9.819-18.593A20.685,20.685,0,0,0,27.641,26.359Z" transform="translate(-4.8 -24.2)" fill="#00b0e9" stroke="#00b0e9" stroke-width="1"/></g><g transform="translate(14.125 13.212)"><path d="M13.9,42.009a8.7,8.7,0,1,1,8.7-8.7A8.708,8.708,0,0,1,13.9,42.009Zm0-15.32a6.546,6.546,0,1,0,6.546,6.546h0A6.583,6.583,0,0,0,13.9,26.689Z" transform="translate(-5.2 -24.6)" fill="#00b0e9" stroke="#00b0e9" stroke-width="1"/></g></g><g transform="translate(505.735 268.121)"><g transform="translate(5.366 0)"><rect width="81.685" height="2.159" transform="translate(0)" fill="#00b0e9" stroke="#00b0e9" stroke-width="1"/></g><g transform="translate(89.968 0)"><rect width="2.646" height="2.159" transform="translate(0)" fill="#00b0e9" stroke="#00b0e9" stroke-width="1"/></g><g transform="translate(95.004 0)"><rect width="2.646" height="2.159" transform="translate(0)" fill="#00b0e9" stroke="#00b0e9" stroke-width="1"/></g><g transform="translate(0 0)"><rect width="2.646" height="2.159" fill="#00b0e9" stroke="#00b0e9" stroke-width="1"/></g></g><g transform="translate(541.587 206.617)"><path d="M37.664,87.918H5.7V64.1H7.859V85.69H35.5V50.523A2.021,2.021,0,0,0,33.485,48.5H31.744V38.058a2.021,2.021,0,0,0-2.019-2.019H26.243v-7.66a2.021,2.021,0,0,0-2.019-2.019H19.279a2.021,2.021,0,0,0-2.019,2.019v7.59H13.778a2.3,2.3,0,0,0-1.671.836l-1.741-1.253a4.16,4.16,0,0,1,3.412-1.741h1.184V28.378A4.191,4.191,0,0,1,19.14,24.2h4.944a4.191,4.191,0,0,1,4.178,4.178V33.81h1.323a4.191,4.191,0,0,1,4.178,4.178v8.356a4.166,4.166,0,0,1,3.76,4.178Z" transform="translate(-5.7 -24.2)" fill="#00b0e9" stroke="#00b0e9" stroke-width="1"/></g></g></svg>