<svg xmlns="http://www.w3.org/2000/svg" width="33.093" height="30.316" viewBox="0 0 33.093 30.316"><g transform="translate(0 0)"><g transform="translate(0 -1)" fill="none"><path d="M27.578,1H5.516A5.532,5.532,0,0,0,0,6.516V20.305a5.532,5.532,0,0,0,5.516,5.516v4.137a1.379,1.379,0,0,0,2.344.965l5.1-5.1H27.578a5.532,5.532,0,0,0,5.516-5.516V6.516A5.532,5.532,0,0,0,27.578,1Z" stroke="none"/><path d="M 5.515523910522461 2.500001907348633 C 3.301353454589844 2.500001907348633 1.500003814697266 4.301471710205078 1.500003814697266 6.515771865844727 L 1.500003814697266 20.30521011352539 C 1.500003814697266 22.51951217651367 3.301353454589844 24.32098007202148 5.515523910522461 24.32098007202148 L 7.015523910522461 24.32098007202148 L 7.015523910522461 25.82098007202148 L 7.015523910522461 29.64584159851074 L 11.90080451965332 24.76034164428711 L 12.34014320373535 24.32098007202148 L 12.96148300170898 24.32098007202148 L 27.57762336730957 24.32098007202148 C 29.79179382324219 24.32098007202148 31.59314346313477 22.51951217651367 31.59314346313477 20.30521011352539 L 31.59314346313477 6.515771865844727 C 31.59314346313477 4.301471710205078 29.79179382324219 2.500001907348633 27.57762336730957 2.500001907348633 L 5.515523910522461 2.500001907348633 M 5.515523910522461 1.000001907348633 L 27.57762336730957 1.000001907348633 C 30.61116409301758 1.000001907348633 33.09314346313477 3.482101440429688 33.09314346313477 6.515771865844727 L 33.09314346313477 20.30521011352539 C 33.09314346313477 23.33888244628906 30.61116409301758 25.82098007202148 27.57762336730957 25.82098007202148 L 12.96148300170898 25.82098007202148 L 7.859622955322266 30.92307090759277 C 7.589317321777344 31.19338989257813 7.24554443359375 31.31648063659668 6.904991149902344 31.31648063659668 C 6.203210830688477 31.31648063659668 5.515523910522461 30.79338455200195 5.515523910522461 29.95781135559082 L 5.515523910522461 25.82098007202148 C 2.481983184814453 25.82098007202148 3.814697265625e-06 23.33888244628906 3.814697265625e-06 20.30521011352539 L 3.814697265625e-06 6.515771865844727 C 3.814697265625e-06 3.482101440429688 2.481983184814453 1.000001907348633 5.515523910522461 1.000001907348633 Z" stroke="none"/></g></g></svg>