<svg xmlns="http://www.w3.org/2000/svg" xmlns:xlink="http://www.w3.org/1999/xlink" width="67.646" height="67.23" viewBox="0 0 67.646 67.23"><defs><clipPath id="a"><rect width="67.646" height="63.833" fill="#231f20"/></clipPath></defs><g transform="translate(17351 11919.235)"><path d="M-497.153,309.8h9.471L-465.8,287.92V277.613Z" transform="translate(-16851.533 -12195.618)" fill="#fff" stroke="rgba(0,0,0,0)" stroke-miterlimit="10" stroke-width="1"/><path d="M-326.767,277.617v10.307l21.886,21.87h9.47l-8.437-8.659v-21.2h-7.24v13.777Z" transform="translate(-16990.568 -12195.615)" fill="#00b0e9" stroke="rgba(0,0,0,0)" stroke-miterlimit="10" stroke-width="1"/><path d="M-497.153,469.681h2.3v8.86h4.446v-8.86h2.272v21.367h-2.272V480.621h-4.446v10.427h-2.3Z" transform="translate(-16851.533 -12352.339)" fill="#fff"/><g transform="translate(-17351 -11917.998)"><g clip-path="url(#a)"><path d="M-426.727,501.8v8.118c0,2.817-1.18,4.236-3.562,4.236-2.5,0-3.419-1.588-3.419-4.212V501.8c0-2.719,1.251-4.164,3.518-4.164,2.383,0,3.466,1.637,3.466,4.164m-5.224-.072v8.329c0,1.829.651,2.527,1.733,2.527,1.131,0,1.733-.7,1.733-2.6v-8.253c0-1.709-.578-2.527-1.759-2.527-1.155,0-1.709.771-1.709,2.527" transform="translate(447.695 -457.148)" fill="#fff"/><path d="M-383.6,498.809V511.3c0,1.323.457,2.238,1.684,2.238s1.637-.867,1.637-2.215V498.808h1.733v12.447c0,2.479-1.131,3.85-3.417,3.85-2.215,0-3.346-1.251-3.346-3.8V498.809Z" transform="translate(408.201 -458.109)" fill="#fff"/><path d="M-338.473,509.4v.939c0,1.517.529,2.311,1.661,2.311,1.155,0,1.588-.819,1.588-2.6a4.093,4.093,0,0,0-2.094-3.924c-1.733-1.353-2.6-2.165-2.6-4.526,0-2.046.626-4,3.129-3.971,2.407,0,3.033,1.588,3.033,3.634v.745h-1.714v-.7c0-1.325-.241-2.19-1.353-2.19s-1.4.963-1.4,2.215c0,1.488.313,2.07,1.782,3.177,2.239,1.686,2.936,2.648,2.936,5.3,0,2.262-.649,4.329-3.37,4.329-2.571,0-3.321-1.709-3.321-3.827V509.4Z" transform="translate(371.377 -457.149)" fill="#fff"/><path d="M-289.212,507.113h-3.611v6.21h4.093l-.216,1.565h-5.585v-16.08h5.512V500.4h-3.8v5.126h3.611Z" transform="translate(334.128 -458.109)" fill="#fff"/><path d="M-249.242,469.681v16.6c0,1.759.607,2.976,2.239,2.976s2.176-1.151,2.176-2.943V469.681h2.3v16.531c0,3.294-1.5,5.118-4.542,5.118-2.943,0-4.446-1.663-4.446-5.053v-16.6Z" transform="translate(299.024 -434.34)" fill="#fff"/><path d="M-190.8,500.336h2.9c2.331,0,3.438,1.177,3.438,3.719v.966c0,2.354-.708,4.1-3.556,4.1H-189.1v6.946h-1.7Zm1.7,7.369h.917c1.79,0,2.048-1.082,2.048-2.706v-.847c0-1.272-.283-2.4-1.908-2.4h-1.059Z" transform="translate(249.481 -459.354)" fill="#fff"/><path d="M-163.868,579.653a.782.782,0,0,1-.232.562.782.782,0,0,1-.565.226.789.789,0,0,1-.566-.226.788.788,0,0,1-.236-.562.788.788,0,0,1,.239-.556.788.788,0,0,1,.563-.222.779.779,0,0,1,.562.221.779.779,0,0,1,.235.556m-1.4,0a.6.6,0,0,0,.172.44.6.6,0,0,0,.436.181.6.6,0,0,0,.427-.183.6.6,0,0,0,.166-.434.6.6,0,0,0-.166-.44.6.6,0,0,0-.432-.186.6.6,0,0,0-.433.183.6.6,0,0,0-.171.438m.479.406h-.18v-.778a1.579,1.579,0,0,1,.3-.024.487.487,0,0,1,.271.057.218.218,0,0,1,.076.17.2.2,0,0,1-.161.18v.009a.229.229,0,0,1,.135.189.594.594,0,0,0,.057.195h-.195a.677.677,0,0,1-.062-.189c-.014-.085-.061-.123-.161-.123h-.085Zm0-.441h.085c.1,0,.18-.034.18-.114s-.051-.119-.166-.119a.409.409,0,0,0-.1.01Z" transform="translate(228.81 -523.443)" fill="#fff"/></g></g><text transform="translate(-17350 -11853.005)" fill="#fff" font-size="5" font-family="Gilroy-Medium, Gilroy ☞" font-weight="500"><tspan x="0" y="0" letter-spacing="0.16em">BUY</tspan><tspan y="0" xml:space="preserve" letter-spacing="0.15em"> • S</tspan><tspan y="0" letter-spacing="0.16em">ELL </tspan><tspan y="0" letter-spacing="0.15em">• </tspan><tspan y="0" letter-spacing="0.16em">REN</tspan><tspan y="0">T</tspan></text></g></svg>