<svg xmlns="http://www.w3.org/2000/svg" width="93.735" height="69.169" viewBox="0 0 93.735 69.169"><g transform="translate(-300.304 -265.815)"><g transform="translate(349.842 274.571)"><path d="M28.554,84.083a1,1,0,0,1-1-.869C26.148,74.993,21.4,69.847,16.725,64.9,11.712,59.488,6.9,54.342,6.9,45.854a21.654,21.654,0,0,1,43.308,0c0,8.488-4.812,13.567-9.825,19.048C35.772,69.914,30.96,75.06,29.557,83.214A.959.959,0,0,1,28.554,84.083Zm0-57.811A19.567,19.567,0,0,0,8.972,45.854c0,7.619,4.545,12.5,9.29,17.644,4.01,4.344,8.221,8.822,10.292,15.3,2.139-6.483,6.282-10.961,10.359-15.3,4.812-5.146,9.29-9.958,9.29-17.644A19.624,19.624,0,0,0,28.554,26.272Z" transform="translate(-6.9 -24.2)" fill="#00b0e9" stroke="#00b0e9" stroke-width="1"/></g><g transform="translate(363.253 287.114)"><path d="M15.587,41.175a8.287,8.287,0,1,1,8.287-8.287h0A8.329,8.329,0,0,1,15.587,41.175Zm0-14.57A6.216,6.216,0,1,0,21.8,32.821a6.2,6.2,0,0,0-6.216-6.216Z" transform="translate(-7.3 -24.6)" fill="#00b0e9" stroke="#00b0e9" stroke-width="1"/></g><g transform="translate(300.804 332.413)"><g transform="translate(5.162 0)"><rect width="77.527" height="2.072" transform="translate(0)" fill="#00b0e9" stroke="#00b0e9" stroke-width="1"/></g><g transform="translate(85.415 0)"><rect width="2.54" height="2.072" fill="#00b0e9" stroke="#00b0e9" stroke-width="1"/></g><g transform="translate(90.195 0)"><rect width="2.54" height="2.072" transform="translate(0)" fill="#00b0e9" stroke="#00b0e9" stroke-width="1"/></g><g transform="translate(0 0)"><rect width="2.54" height="2.072" fill="#00b0e9" stroke="#00b0e9" stroke-width="1"/></g></g><g transform="translate(314.295 303.522)"><path d="M58.464,55.944H49.976V35.226l-.6-.668-12.1-.134v21.52H6V26a1.028,1.028,0,0,1,1-1H7a1.028,1.028,0,0,1,1,1v27.87H35.139V32.352l15.1.2,1.671,1.938V53.939h4.411V42.377a1.028,1.028,0,0,1,1-1h0a1.028,1.028,0,0,1,1,1ZM29.793,46.053h-13.7v-13.7h13.7ZM18.1,43.981h9.557V34.424H18.1Z" transform="translate(-6 -25)" fill="#00b0e9" stroke="#00b0e9" stroke-width="1"/></g><g transform="translate(324.399 310.927)"><path d="M19.934,38.834H6.3V25.2H20l-.067,13.634ZM8.305,36.829h9.557V27.205H8.305Z" transform="translate(-6.3 -25.2)" fill="#00b0e9" stroke="#00b0e9" stroke-width="1"/></g><g transform="translate(307.639 266.315)"><g transform="translate(38.288 31.823)"><path d="M13.516,32.152A7.285,7.285,0,0,1,6.9,24.8H8.971a5.414,5.414,0,0,0,4.812,5.347Z" transform="translate(-6.898 -24.8)" fill="#00b0e9" stroke="#00b0e9" stroke-width="1"/></g><g transform="translate(25.504 31.823)"><path d="M13.919,32.219A7.445,7.445,0,0,1,6.5,24.8H8.572a5.347,5.347,0,0,0,10.693,0h2.072A7.488,7.488,0,0,1,13.919,32.219Z" transform="translate(-6.5 -24.8)" fill="#00b0e9" stroke="#00b0e9" stroke-width="1"/></g><g transform="translate(12.718 31.823)"><path d="M13.519,32.219A7.445,7.445,0,0,1,6.1,24.8H8.172a5.347,5.347,0,0,0,10.693,0h2.072A7.445,7.445,0,0,1,13.519,32.219Z" transform="translate(-6.1 -24.8)" fill="#00b0e9" stroke="#00b0e9" stroke-width="1"/></g><g transform="translate(0 22.539)"><path d="M13.219,41.308A7.445,7.445,0,0,1,5.8,33.89V24.6H7.872v9.29a5.347,5.347,0,1,0,10.693,0h2.072A7.445,7.445,0,0,1,13.219,41.308Z" transform="translate(-5.8 -24.6)" fill="#00b0e9" stroke="#00b0e9" stroke-width="1"/></g><g transform="translate(12.785 30.094)"><rect width="2.072" height="2.206" transform="translate(0 0)" fill="#00b0e9" stroke="#00b0e9" stroke-width="1"/></g><g transform="translate(25.503 30.094)"><rect width="2.072" height="2.206" transform="translate(0 0)" fill="#00b0e9" stroke="#00b0e9" stroke-width="1"/></g><g transform="translate(38.223 30.094)"><rect width="2.072" height="2.206" transform="translate(0 0)" fill="#00b0e9" stroke="#00b0e9" stroke-width="1"/></g><g transform="translate(0.066 7.321)"><path d="M50.478,40.541H6.9a1.028,1.028,0,0,1-1-1,.858.858,0,0,1,.267-.668l12.3-14.236a1.107,1.107,0,0,1,.8-.334h39.1a.974.974,0,0,1,.869.468l2.206,3.208a1,1,0,0,1-1.6,1.2h0L57.9,26.439H19.8L9.108,38.469h41.3a1.028,1.028,0,0,1,1,1,.952.952,0,0,1-.936,1.069Z" transform="translate(-5.9 -24.3)" fill="#00b0e9" stroke="#00b0e9" stroke-width="1"/></g><g transform="translate(12.293)"><path d="M46.8,33.29H6.1V24H46.8ZM8.172,31.218H44.8V26.005H8.172Z" transform="translate(-6.1 -24)" fill="#00b0e9" stroke="#00b0e9" stroke-width="1"/></g></g></g></svg>