<svg xmlns="http://www.w3.org/2000/svg" width="18.928" height="12.063" viewBox="0 0 18.928 12.063"><g transform="translate(1.364 -91.965)"><g transform="translate(0 92.835)"><g transform="translate(0)"><path d="M18.808,98.5c-.169-.231-4.2-5.663-9.344-5.663S.289,98.267.12,98.5a.624.624,0,0,0,0,.736c.169.231,4.2,5.663,9.344,5.663s9.175-5.432,9.344-5.663A.624.624,0,0,0,18.808,98.5ZM9.464,103.65c-3.79,0-7.073-3.605-8.045-4.784.971-1.18,4.246-4.783,8.045-4.783s7.073,3.6,8.045,4.784C16.538,100.046,13.262,103.65,9.464,103.65Z" transform="translate(-1.364 -93.705)" fill="#00b0e9"/></g></g><g transform="translate(4.896 94.792)"><g transform="translate(0 0)"><path d="M157.926,154.725a3.2,3.2,0,1,0,3.2,3.2A3.208,3.208,0,0,0,157.926,154.725Zm0,5.341a2.136,2.136,0,1,1,2.136-2.136A2.139,2.139,0,0,1,157.926,160.066Z" transform="translate(-154.722 -154.725)" fill="#00b0e9"/></g></g></g></svg>