<svg xmlns="http://www.w3.org/2000/svg" width="70.253" height="69.838" viewBox="0 0 70.253 69.838"><g transform="translate(-315.849 -240.516)"><g transform="translate(320.513 252.032)"><g transform="translate(12.116 30.62)"><path d="M32.278,22.852a3.747,3.747,0,0,1-3.768-3.768h0V18.8a3.732,3.732,0,0,1-3.981-3.412v-.569a3.792,3.792,0,0,1-4.052-3.412v-.569a3.768,3.768,0,0,1-2.915-6.4l.711-.64,1.28,1.28-.64.64a1.848,1.848,0,0,0,0,2.7h0a1.848,1.848,0,0,0,2.7,0l.64-.64,1.28,1.28-.64.64a1.91,1.91,0,1,0,2.7,2.7l.64-.64,1.28,1.28-.64.64a1.91,1.91,0,0,0,2.7,2.7l.64-.64,1.28,1.28-.64.64a1.848,1.848,0,0,0,0,2.7h0a1.848,1.848,0,0,0,2.7,0h0l.64-.64L35.477,21l-.64.64A2.979,2.979,0,0,1,32.278,22.852Z" transform="translate(-16.488 -3.8)" fill="#00b0e9" stroke="#00b0e9" stroke-width="0.8"/></g><g transform="translate(7.417 7.766)"><path d="M41.976,43.643h0a3.651,3.651,0,0,1-2.63-1.066L21.574,24.8a3.14,3.14,0,0,1-.853-1.99v-1.28a.913.913,0,0,0-.284-.711L16.1,16.487,30.887,1.7l16.635.142L62.308,16.629l-4.336,4.336a.913.913,0,0,0-.284.711v1.28a2.581,2.581,0,0,1-.853,1.99l-.284.284.64.64a3.628,3.628,0,0,1-1.777,6.185,3.774,3.774,0,0,1-.5,4.763,3.651,3.651,0,0,1-2.63,1.066h0a3.713,3.713,0,0,1-1.493-.284,3.721,3.721,0,0,1-4.265,3.128,3.01,3.01,0,0,1-.853-.284,3.744,3.744,0,0,1-3.7,3.2ZM18.659,16.487l3.057,3.057a2.581,2.581,0,0,1,.853,1.99v1.28a.913.913,0,0,0,.284.711L40.626,41.3a1.942,1.942,0,0,0,1.351.569h0A1.911,1.911,0,0,0,43.9,39.946a1.942,1.942,0,0,0-.569-1.351L35.01,30.207l1.28-1.28,8.317,8.317h0l1.137,1.137a1.909,1.909,0,0,0,2.7,0,1.977,1.977,0,0,0,0-2.7l-9.455-9.455,1.28-1.28L49.725,34.4h0l1.137,1.137a1.91,1.91,0,0,0,2.7-2.7h0l-1.706-1.706.071-.071-8.886-8.886,1.28-1.28,8.886,8.957a1.91,1.91,0,0,0,2.7-2.7h0L41.976,13.074a2.69,2.69,0,0,1-.853-1.99V9.946a.972.972,0,0,0-1-1h-.284a.913.913,0,0,0-.711.284l-5.118,5.118a3.651,3.651,0,0,1-2.63,1.066h0a3.793,3.793,0,0,1-3.768-3.768,3.968,3.968,0,0,1,1.066-2.63l5.545-5.545H31.669ZM39.844,7.1h.284a2.852,2.852,0,0,1,2.844,2.844v1.137a.913.913,0,0,0,.284.711L55.341,23.88l.284-.284a.913.913,0,0,0,.284-.711V21.6a2.581,2.581,0,0,1,.853-1.99l3.057-3.057L46.811,3.69,36.787,3.548,29.962,10.3a1.848,1.848,0,0,0,0,2.7,1.942,1.942,0,0,0,1.351.569h0A1.942,1.942,0,0,0,32.664,13l5.118-5.118A3.9,3.9,0,0,1,39.844,7.1Z" transform="translate(-16.1 -1.7)" fill="#00b0e9" stroke="#00b0e9" stroke-width="0.8"/></g><g transform="translate(0 0)"><path d="M21.869,27.09,15.4,20.621,35.092,1l6.469,6.469ZM18.03,20.621l3.91,3.91L39,7.469l-3.91-3.91Z" transform="translate(-15.4 -1)" fill="#00b0e9" stroke="#00b0e9" stroke-width="0.8"/></g><g transform="translate(34.942 0.132)"><path d="M38.221,27.09,18.6,7.469,25.069,1,44.69,20.621ZM21.159,7.469,38.221,24.53l3.91-3.91L25.069,3.559Z" transform="translate(-18.6 -1)" fill="#00b0e9" stroke="#00b0e9" stroke-width="0.8"/></g></g><g transform="translate(318.905 240.923)"><path d="M17.006,21.974,15.3,21.263A34.892,34.892,0,0,1,40.394.718a35.717,35.717,0,0,1,14,0,30.4,30.4,0,0,1,6.54,2.062l-.711,1.706a31.181,31.181,0,0,0-6.185-1.919,32.217,32.217,0,0,0-13.294,0,32.674,32.674,0,0,0-11.8,4.976A32.043,32.043,0,0,0,17.006,21.974Z" transform="translate(-15.3 -0.025)" fill="#00b0e9" stroke="#00b0e9" stroke-width="0.8"/></g><g transform="translate(322.194 294.241)"><path d="M37.524,20.54a34.445,34.445,0,0,1-12.441-5.261A34.668,34.668,0,0,1,15.7,5.9l1.493-1A32.606,32.606,0,0,0,31.7,16.843a31.181,31.181,0,0,0,6.185,1.919Z" transform="translate(-15.7 -4.9)" fill="#00b0e9" stroke="#00b0e9" stroke-width="0.8"/></g><g transform="translate(374.328 275.691)"><path d="M21.58,27.768l-1.28-1.28a32.18,32.18,0,0,0,7.038-10.521,31.181,31.181,0,0,0,1.919-6.185A34.9,34.9,0,0,0,29.9,3.1h1.777a33.779,33.779,0,0,1-.711,7.038A34.445,34.445,0,0,1,25.7,22.578,22.1,22.1,0,0,1,21.58,27.768Z" transform="translate(-20.3 -3.1)" fill="#00b0e9" stroke="#00b0e9" stroke-width="0.8"/></g><g transform="translate(363.018 243.343)"><path d="M37.214,18.783,36.859,18l1.635-.782.782,1.635-1.635.782ZM35.3,15.229l-.5-.782,1.564-.924.924,1.564-1.564.924Zm-2.346-3.27-.569-.711L33.8,10.11l1.137,1.422L33.518,12.67Zm-2.7-2.986-.64-.64,1.28-1.28,1.28,1.28-1.28,1.28ZM27.12,6.343h0l-.711-.569,1.066-1.422.711.569h0l.711.569L27.831,6.911ZM23.779,4.068,23,3.641l.924-1.564L25.485,3l-.924,1.564ZM20.153,2.29,19.3,1.935,20.011.3l.853.355h0l.853.355-.711,1.635Z" transform="translate(-19.3 -0.3)" fill="#00b0e9" stroke="#00b0e9" stroke-width="0.8"/></g><g transform="translate(316.28 278.213)"><path d="M20.929,20.39h0l-.5-.782,1.493-1,1,1.493-1.493,1.066Zm-2.133-3.7-.427-.782,1.635-.853.427.782h0l.427.782-1.635.853Zm-1.706-3.91-.284-.853,1.706-.64L19.152,13l-1.706.64ZM15.882,8.661l-.213-.853,1.777-.427.427,1.777L16.1,9.585Zm-.711-4.194h0L15.1,3.613,16.877,3.4l.213,1.777-1.777.213Z" transform="translate(-15.1 -3.4)" fill="#00b0e9" stroke="#00b0e9" stroke-width="0.8"/></g><g transform="translate(359.703 298.428)"><path d="M19,14.37l1.706-.5.5,1.706-.782.284h0l-.853.284Zm3.839-1.28,1.635-.711.711,1.635-1.635.711Zm3.626-1.777,1.564-.924.924,1.564-1.493.924Zm3.412-2.2L31.3,7.972l1.137,1.422-1.422,1.137ZM33,6.48l1.28-1.28,1.28,1.28-.64.64h0l-.64.64Z" transform="translate(-19 -5.2)" fill="#00b0e9" stroke="#00b0e9" stroke-width="0.8"/></g></g></svg>