<svg id="ic_calendar" xmlns="http://www.w3.org/2000/svg" width="18.529" height="18.529" viewBox="0 0 18.529 18.529">
  <path id="Path_29561" data-name="Path 29561" d="M2.389,1.448H4.053V.579a.579.579,0,0,1,1.158,0v.869h8.107V.579a.579.579,0,0,1,1.158,0v.869h1.665a2.391,2.391,0,0,1,2.389,2.389v12.3a2.391,2.391,0,0,1-2.389,2.389H2.389A2.391,2.391,0,0,1,0,16.141V3.836A2.391,2.391,0,0,1,2.389,1.448ZM16.141,2.606H14.476v.579a.579.579,0,0,1-1.158,0V2.606H5.211v.579a.579.579,0,0,1-1.158,0V2.606H2.389a1.232,1.232,0,0,0-1.23,1.23V5.211H17.371V3.836A1.232,1.232,0,0,0,16.141,2.606ZM2.389,17.371H16.141a1.232,1.232,0,0,0,1.23-1.23V6.369H1.158v9.771A1.232,1.232,0,0,0,2.389,17.371Z" fill="#00b0e9"/>
</svg>
