<svg xmlns="http://www.w3.org/2000/svg" width="13.686" height="18.495" viewBox="0 0 13.686 18.495"><g transform="translate(-66.569)"><g transform="translate(69.576 0.421)"><path d="M149.8,11.642h3.836v7H149.8Z" transform="translate(-149.797 -11.642)" fill="#5ac8fa"/><path d="M256,11.642h3.865v7H256Z" transform="translate(-252.164 -11.642)" fill="#00b0e9"/></g><path d="M217.85,11.642v7h1.378l.375-4.157-.375-2.842Z" transform="translate(-145.816 -11.221)" fill="#00b0e9"/><path d="M256,11.642h1.407v7H256Z" transform="translate(-182.588 -11.221)" fill="#007aff"/><path d="M120.02,0a.542.542,0,1,0,0,1.084h4.39l.375-.542L124.41,0Z" transform="translate(-50.997)" fill="#ffd74a"/><path d="M260.932.542A.542.542,0,0,0,260.39,0H256V1.084h4.39A.542.542,0,0,0,260.932.542Z" transform="translate(-182.588)" fill="#fdbf00"/><g transform="translate(66.569 4.809)"><path d="M73.412,133.138a.527.527,0,0,0-.373.154l-1.7,1.7h-2.4a.527.527,0,0,0-.527.527v2.4l-1.695,1.7a.527.527,0,0,0,0,.746l1.7,1.7v2.4a.527.527,0,0,0,.527.527h2.4l1.7,1.7a.527.527,0,0,0,.373.154h0l1.02-6.843-1.02-6.843Z" transform="translate(-66.569 -133.138)" fill="#fdbf00"/><path d="M262.688,139.608l-1.7-1.7v-2.4a.527.527,0,0,0-.527-.527h-2.4l-1.695-1.7a.527.527,0,0,0-.373-.154v13.686a.527.527,0,0,0,.373-.154l1.7-1.7h2.4a.527.527,0,0,0,.527-.527v-2.4l1.7-1.7a.527.527,0,0,0,0-.746Z" transform="translate(-249.157 -133.138)" fill="#ff9102"/></g><g transform="translate(69.547 7.787)"><path d="M152.484,215.715l-.823.823H150.5a.527.527,0,0,0-.527.527v1.164l-.823.823a.527.527,0,0,0,0,.746l.823.823v1.164a.527.527,0,0,0,.527.527h1.164l.823.823a.526.526,0,0,0,.373.154h0l.7-3.945-.7-3.786A.526.526,0,0,0,152.484,215.715Z" transform="translate(-148.992 -215.561)" fill="#ffd74a"/></g><path d="M259.71,219.053l-.823-.823v-1.164a.527.527,0,0,0-.527-.527h-1.165l-.823-.823a.526.526,0,0,0-.373-.154v7.731a.526.526,0,0,0,.373-.154l.823-.823h1.164a.527.527,0,0,0,.527-.527v-1.164l.823-.823A.527.527,0,0,0,259.71,219.053Z" transform="translate(-182.587 -207.774)" fill="#fdbf00"/></g></svg>