<svg xmlns="http://www.w3.org/2000/svg" width="206.246" height="204.561" viewBox="0 0 206.246 204.561"><g transform="translate(-281.956 -1008.976)"><g transform="translate(281.956 1008.976)"><path d="M352.956,759.828h31.133l71.99-71.952v-33.9Z" transform="translate(-352.956 -653.976)" fill="#231f20"/><path d="M507.6,731.344V661.586H483.784V706.9l-51.561-52.926v33.9l71.99,71.952h31.133Z" transform="translate(-329.099 -653.976)" fill="#00b0e9"/></g><g transform="translate(281.956 1125.219)"><path d="M352.956,743.327h7.576V772.47h14.624V743.327h7.47v70.281h-7.47v-34.3H360.532v34.3h-7.576Z" transform="translate(-352.956 -743.327)" fill="#231f20"/><path d="M405.433,770.027v26.68c0,9.263-3.879,13.933-11.718,13.933-8.234,0-11.243-5.225-11.243-13.854v-26.76c0-8.947,4.118-13.7,11.56-13.7C401.869,756.33,405.433,761.714,405.433,770.027Zm-17.181-.238v27.393c0,6.017,2.138,8.313,5.7,8.313,3.721,0,5.7-2.3,5.7-8.55V769.789c0-5.62-1.9-8.313-5.779-8.313C390.074,761.475,388.252,764.01,388.252,769.789Z" transform="translate(-344.073 -739.414)" fill="#231f20"/><path d="M410.608,756.877v41.09c0,4.354,1.505,7.363,5.542,7.363s5.383-2.85,5.383-7.284V756.877h5.7v40.932c0,8.154-3.721,12.666-11.243,12.666-7.283,0-11-4.116-11-12.509v-41.09Z" transform="translate(-337.296 -739.249)" fill="#231f20"/><path d="M431.6,795.044v3.087c0,4.988,1.742,7.6,5.464,7.6,3.8,0,5.225-2.693,5.225-8.551,0-6.176-1.346-8.55-6.889-12.9-5.7-4.434-8.55-7.127-8.55-14.884,0-6.73,2.059-13.142,10.292-13.063,7.918,0,9.976,5.225,9.976,11.955v2.454H441.5v-2.295c0-4.356-.794-7.2-4.434-7.2s-4.592,3.167-4.592,7.283c0,4.91,1.029,6.809,5.858,10.451,7.364,5.542,9.66,8.71,9.66,17.417,0,7.443-2.139,14.251-11.086,14.251-8.471,0-10.924-5.62-10.924-12.588v-3.008Z" transform="translate(-330.978 -739.414)" fill="#231f20"/><path d="M464.715,784.191H452.839v20.427H466.3l-.712,5.147H447.218V756.877h18.13V762.1H452.839v16.863h11.875Z" transform="translate(-324.586 -739.249)" fill="#231f20"/><path d="M474.7,743.327v54.6c0,5.787,2,9.785,7.365,9.785s7.154-3.787,7.154-9.679v-54.71h7.574v54.394c0,10.837-4.944,16.833-14.938,16.833-9.68,0-14.625-5.471-14.625-16.622v-54.6Z" transform="translate(-318.563 -743.327)" fill="#231f20"/><path d="M495.477,757.587H505c7.667,0,11.307,3.873,11.307,12.236V773c0,7.745-2.324,13.474-11.693,13.474h-3.562v22.845h-5.575Zm5.575,24.238h3.02c5.886,0,6.738-3.562,6.738-8.905v-2.788c0-4.181-.929-7.9-6.272-7.9h-3.485Z" transform="translate(-310.061 -739.035)" fill="#231f20"/></g><g transform="translate(482.704 1191.306)"><path d="M512.519,796.684a2.63,2.63,0,1,1-2.622-2.559A2.57,2.57,0,0,1,512.519,796.684Zm-4.6,0a1.984,1.984,0,0,0,2,2.044,1.96,1.96,0,0,0,1.95-2.03,1.976,1.976,0,1,0-3.948-.014Zm1.577,1.341H508.9v-2.559a5.183,5.183,0,0,1,.984-.078,1.6,1.6,0,0,1,.89.187.713.713,0,0,1,.248.562.658.658,0,0,1-.529.593v.031a.751.751,0,0,1,.467.623,1.943,1.943,0,0,0,.189.64h-.64a2.227,2.227,0,0,1-.2-.624c-.046-.281-.2-.406-.529-.406h-.281Zm.016-1.451h.281c.328,0,.593-.109.593-.376,0-.233-.172-.389-.546-.389a1.426,1.426,0,0,0-.328.031Z" transform="translate(-507.262 -794.125)" fill="#231f20"/></g><g transform="translate(282.75 1202.131)"><path d="M353.566,802.665h5.118c2.956,0,4.1.886,4.1,2.732a2.286,2.286,0,0,1-2.161,2.4v.046a2.623,2.623,0,0,1,2.567,2.641c0,1.621-1.186,3.017-4.127,3.017h-5.494Zm1.561,4.563h3.991c1.306,0,2.1-.5,2.1-1.651,0-1.006-.5-1.681-2.627-1.681h-3.467Zm0,5.042h3.738c2.115,0,2.671-.826,2.671-1.876,0-1.246-.856-1.936-2.762-1.936h-3.647Z" transform="translate(-353.566 -802.38)" fill="#231f20"/><path d="M373.466,802.665h1.56v6.469c0,3.092-2.1,4.652-5.043,4.652s-5.043-1.56-5.043-4.652v-6.469H366.5v6.543a3.485,3.485,0,0,0,6.964,0Z" transform="translate(-350.142 -802.38)" fill="#231f20"/><path d="M381.071,813.5v-4.518l-5.148-6.318h2.011l3.916,5.027,3.919-5.027h2.01l-5.147,6.318V813.5Z" transform="translate(-346.837 -802.38)" fill="#231f20"/><path d="M396.647,804.741a2.717,2.717,0,1,1-2.716,2.716A2.716,2.716,0,0,1,396.647,804.741Z" transform="translate(-341.417 -801.755)" fill="#231f20"/><path d="M415.845,805.613c-.15-1.516-1.7-1.936-3.453-1.936-1.546,0-2.85.765-2.85,1.966,0,.585.359,1.185,1.7,1.41l4.037.692c1.756.3,2.567,1.3,2.567,2.641,0,2.161-1.936,3.466-5.148,3.466-3.077,0-4.862-1.141-5.057-3.527h1.651c.044,1.456,1.44,2.3,3.5,2.3,2.252,0,3.5-.886,3.5-2.073,0-3-8.3-.285-8.3-4.816,0-2.087,1.771-3.288,4.728-3.288,2.251,0,4.637.675,4.786,3.167Z" transform="translate(-337.293 -802.446)" fill="#231f20"/><path d="M419.345,802.665h8.1V803.9H420.9v3.422h6.124v1.232H420.9v3.721h6.723V813.5h-8.283Z" transform="translate(-333.768 -802.38)" fill="#231f20"/><path d="M429.877,802.665h1.561v9.605h6.242V813.5h-7.8Z" transform="translate(-330.599 -802.38)" fill="#231f20"/><path d="M439.417,802.665h1.561v9.605h6.243V813.5h-7.8Z" transform="translate(-327.727 -802.38)" fill="#231f20"/><path d="M457.188,804.741a2.717,2.717,0,1,1-2.716,2.716A2.716,2.716,0,0,1,457.188,804.741Z" transform="translate(-323.196 -801.755)" fill="#231f20"/><path d="M470.072,813.5h-1.561V802.665h5.326c3.349,0,4.1,1.125,4.1,2.866a2.582,2.582,0,0,1-2.476,2.523v.029c1.456.181,1.846.766,2.131,2.6a12.861,12.861,0,0,0,.615,2.822h-1.652c-.284-.766-.449-2.282-.734-3.5-.181-.781-.691-1.336-2.732-1.336h-3.016Zm0-6.063h3.556c1.651,0,2.657-.392,2.657-1.771,0-1.322-.719-1.772-2.625-1.772h-3.587Z" transform="translate(-318.971 -802.38)" fill="#231f20"/><path d="M479.886,802.665h8.1V803.9h-6.544v3.422h6.124v1.232h-6.124v3.721h6.723V813.5h-8.283Z" transform="translate(-315.547 -802.38)" fill="#231f20"/><path d="M498.959,802.665h1.56V813.5h-2.131l-6.632-9.245h-.031V813.5h-1.561V802.665H492.3l6.632,9.245h.031Z" transform="translate(-312.454 -802.38)" fill="#231f20"/><path d="M505.841,803.987H501.25v-1.322H512v1.322H507.4V813.5h-1.561Z" transform="translate(-309.118 -802.38)" fill="#231f20"/></g></g></svg>